<svg xmlns="http://www.w3.org/2000/svg" xmlns:xlink="http://www.w3.org/1999/xlink" width="519" height="420" viewBox="0 0 519 420">
  <defs>
    <clipPath id="clip-path">
      <path id="SVGID" d="M411.353,270.561V241.488s40.407-59.088-3.642-110.58C367.466,83.866,304.331,63.6,293.716,60.451h0l-.09-.027c-.452-.133-.8-.234-1.037-.3l-.065-.017-.272-.078-.106-.03-.049.014c-1.04.285-71.792,19.788-115.516,70.9-44.049,51.492-3.642,110.58-3.642,110.58v29.073H128.594L94.932,326.635l-26.51,32.041,60.172,74.64v11.705H455.7v-8.679l30-19.886,43.538-58.149-30.821-34.117L455.7,270.561Z" transform="translate(-68.422 -59.996)" fill="none"/>
    </clipPath>
  </defs>
  <g id="Group_161622" data-name="Group 161622" transform="translate(-34.343 -31.61)">
    <path id="Path_88880" data-name="Path 88880" d="M400.017,270.561V241.488s40.407-59.088-3.642-110.58C356.131,83.866,293,63.6,282.381,60.451h0l-.09-.027c-.452-.133-.8-.234-1.037-.3l-.065-.017-.272-.078L280.81,60l-.049.014c-1.04.285-71.792,19.788-115.516,70.9C121.2,182.4,161.6,241.488,161.6,241.488v29.073H148.912A31.7,31.7,0,0,0,117.259,302.3V445.021h327.1V302.3a31.7,31.7,0,0,0-31.652-31.742Z" transform="translate(19.245 6.589)" fill="#e4ecef"/>
    <g id="Group_161599" data-name="Group 161599" transform="translate(76.332 66.585)">
      <g id="Group_161598" data-name="Group 161598" transform="translate(0 0)" clip-path="url(#clip-path)">
        <g id="Group_161592" data-name="Group 161592" transform="translate(29.843 272.756)">
          <g id="Group_161589" data-name="Group 161589" transform="translate(296.274)">
            <g id="Group_161588" data-name="Group 161588" transform="translate(0)">
              <path id="Path_88881" data-name="Path 88881" d="M335.346,379.357c-19.456-89.538,94.148-98.62,94.148-98.62s-12.076,18.085-17.367,34.422c-7.77,24-23.425,50.827-76.781,64.2" transform="translate(-333.105 -280.737)" fill="#f39c12"/>
              <path id="Path_88882" data-name="Path 88882" d="M365.7,325.5c-.546-7.128,2.038-18.462,2.038-18.462-5.894,8.1-6.27,18.038-5.989,23.146a268.444,268.444,0,0,0-16.465,22.527c-1.414-6.063-1.274-15.785-1.274-15.785-3.359,7.305-2.808,16.887-2.3,21.354-3.109,4.961-5.664,9.351-7.622,12.847.294,1.816.624,3.654,1.034,5.542q2.584-.647,5.047-1.337a210.364,210.364,0,0,1,12.888-22.739,147.779,147.779,0,0,0,42.54-16.743c-18.34,7.945-32.328,9.328-37.677,9.55,4.805-6.827,9.74-13.083,14.564-18.721a100.614,100.614,0,0,0,29.8-12.055c-7.464,4.07-20.471,6.48-25.654,7.319,17.079-19.036,31.65-29.8,31.65-29.8C392.429,298.489,377.873,311.459,365.7,325.5Z" transform="translate(-332.877 -278.05)" fill="#d35400"/>
            </g>
          </g>
          <g id="Group_161591" data-name="Group 161591" transform="translate(0 4.562)">
            <g id="Group_161590" data-name="Group 161590">
              <path id="Path_88883" data-name="Path 88883" d="M186.789,383.049c19.457-89.538-94.146-98.62-94.146-98.62s12.076,18.085,17.367,34.422c7.77,24,23.425,50.827,76.78,64.2" transform="translate(-92.643 -284.429)" fill="#f39c12"/>
              <path id="Path_88884" data-name="Path 88884" d="M152.258,329.193c.547-7.128-2.037-18.462-2.037-18.462,5.894,8.1,6.27,18.038,5.989,23.146A268.434,268.434,0,0,1,172.675,356.4c1.414-6.063,1.273-15.786,1.273-15.786,3.36,7.306,2.809,16.889,2.3,21.356,3.109,4.961,5.663,9.351,7.622,12.846-.294,1.818-.625,3.655-1.035,5.543q-2.582-.647-5.045-1.338A210.456,210.456,0,0,0,164.9,356.286a147.778,147.778,0,0,1-42.54-16.743c18.339,7.945,32.327,9.328,37.675,9.549-4.8-6.826-9.739-13.082-14.562-18.72a100.633,100.633,0,0,1-29.8-12.055c7.465,4.07,20.473,6.48,25.655,7.319-17.079-19.036-31.65-29.8-31.65-29.8C125.526,302.181,140.082,315.151,152.258,329.193Z" transform="translate(-88.688 -281.742)" fill="#d35400"/>
            </g>
          </g>
        </g>
        <g id="Group_161597" data-name="Group 161597" transform="translate(8.202 308.907)">
          <g id="Group_161594" data-name="Group 161594" transform="translate(0 2.132)">
            <g id="Group_161593" data-name="Group 161593">
              <path id="Path_88885" data-name="Path 88885" d="M75.079,314.224s16.276,12.119,29.773,39.306,43.475,41.636,81.564,38.4c0,0,3.6-24.06-14.794-47.293S121.181,305.284,75.079,314.224Z" transform="translate(-75.079 -311.719)" fill="#f1c40f"/>
              <path id="Path_88886" data-name="Path 88886" d="M169.721,371.274c-.27-4.456-1.379-13.922-5.92-20.484,0,0,1.809,9.484,1.469,15.657A266.011,266.011,0,0,0,145.3,347.266c-.6-5.044-2.68-14.7-9.836-21.6,0,0,4.475,10.635,5.166,17.7-14.322-11.625-30.787-21.79-47.371-25.26,0,0,16.1,8.011,36.074,23.672-5.212.075-18.345-.032-26.345-2.721a99.826,99.826,0,0,0,31.212,6.635c5.686,4.679,11.588,9.943,17.459,15.788-5.268.708-19.184,1.776-38.484-2.823a146.609,146.609,0,0,0,44.477,9.016,206.017,206.017,0,0,1,18.7,23.1c1.928-.073,3.875-.182,5.849-.35a35.473,35.473,0,0,0,.274-4.058C179.866,383.051,175.47,377.646,169.721,371.274Z" transform="translate(-70.86 -310.213)" fill="#e67e22"/>
            </g>
          </g>
          <g id="Group_161596" data-name="Group 161596" transform="translate(316.487)">
            <g id="Group_161595" data-name="Group 161595">
              <path id="Path_88887" data-name="Path 88887" d="M331.946,392.783c1.759-100.385,125.168-81.351,125.168-81.351s-17.422,16.23-27.168,32.312c-14.316,23.622-37.75,48.27-98,49.039" transform="translate(-331.946 -309.993)" fill="#f1c40f"/>
              <path id="Path_88888" data-name="Path 88888" d="M377.409,343.828c1.209-7.738,6.812-19.167,6.812-19.167-8.32,7.145-11.22,17.646-12.2,23.165A293.314,293.314,0,0,0,348.8,367.681c.016-6.822,2.61-17.153,2.61-17.153-5.418,6.941-7.239,17.3-7.819,22.188-4.561,4.5-8.389,8.538-11.355,11.769-.143,2.012-.254,4.054-.291,6.171q2.916-.037,5.716-.151a230.391,230.391,0,0,1,19.457-20.986c28.386.263,49.564-7.1,49.564-7.1-21.551,3.837-36.812,1.774-42.57.659,6.838-6.063,13.673-11.487,20.232-16.28a110.092,110.092,0,0,0,34.8-5.319c-8.982,2.453-23.457,1.734-29.192,1.318,22.995-15.979,41.237-23.777,41.237-23.777C412.7,321.785,393.921,331.935,377.409,343.828Z" transform="translate(-331.946 -307.866)" fill="#e67e22"/>
            </g>
          </g>
        </g>
      </g>
    </g>
    <g id="Group_161610" data-name="Group 161610" transform="translate(293.378 178.081)">
      <g id="Group_161600" data-name="Group 161600" transform="translate(0 175.006)">
        <path id="Path_88889" data-name="Path 88889" d="M374.49,291.633c4.132,10.178,17.378,39.276,12.888,48.246s-27.026,10.022-30.395,4.991-8.122-42.329-3.576-45.484S374.49,291.633,374.49,291.633Z" transform="translate(-219.756 -291.633)" fill="#95a5a6"/>
        <path id="Path_88890" data-name="Path 88890" d="M369.427,304.568,371,318.725a14.594,14.594,0,0,1,10.162,4.5s-18.946,3.6-21.855,4.4-5.658-25.864-5.658-25.864Z" transform="translate(-219.267 -289.281)" fill="#7f8c8d"/>
        <path id="Path_88891" data-name="Path 88891" d="M258.386,291.633c-4.134,10.178-17.378,39.276-12.888,48.246s27.026,10.022,30.395,4.991,8.122-42.329,3.574-45.484S258.386,291.633,258.386,291.633Z" transform="translate(-244.581 -291.633)" fill="#95a5a6"/>
        <path id="Path_88892" data-name="Path 88892" d="M252.272,320.836s3.664-3.24,8.028-2.9l3.207-12.759,11.733,6.145-4.325,20.692Z" transform="translate(-242.796 -288.49)" fill="#7f8c8d"/>
      </g>
      <g id="Group_161601" data-name="Group 161601" transform="translate(20.712 126.036)">
        <path id="Path_88893" data-name="Path 88893" d="M378.185,284.661c-2.6-12.7-53.237-32.773-53.237-32.773s-50.64,20.07-53.236,32.773-10.321,114.72-10.321,114.72H388.506S380.781,297.363,378.185,284.661Z" transform="translate(-261.391 -251.888)" fill="#95a5a6"/>
        <path id="Path_88894" data-name="Path 88894" d="M381.624,303.715l-81.647,1.8-16.414,6.145-.774,4.2L267.884,308c-3.058,33.994-6.493,79.355-6.493,79.355h21.526l.933-33.862c5.206-.346,15.31-1.078,16.741-1.634,0,0,4.4,1.724,6.78-.647,0,0,15.056,4.1,17.525-1.078,0,0,3.7,2.156,5.429,2.479s10.57-3.217,10.57-3.217,2.531,4.527,9.025,2.148a53.445,53.445,0,0,0,14.63,2.148c4.705.086,13.87.08,21.322.055C384.6,337.99,383.054,319.31,381.624,303.715Z" transform="translate(-261.391 -239.859)" fill="#7f8c8d"/>
      </g>
      <g id="Group_161604" data-name="Group 161604" transform="translate(2.457)">
        <path id="Path_88895" data-name="Path 88895" d="M410.4,337.946c-6.6-26.378-18.135-53.579-23.081-61.409s-17.723-37.5-18.958-40.8c-4.811-12.827,5.606-44.5-4.74-62.234-10.1-17.311-24.311-23.905-35.233-23.905s-24.934,6.594-35.033,23.905c-10.346,17.735.071,49.406-4.74,62.234-1.236,3.3-14.013,32.971-18.958,40.8s-16.487,35.031-23.081,61.409c0,0,49.046,30.5,79.133,33.8S369.4,382.87,369.4,382.87s-.8-8.611-2.088-21.524A382.814,382.814,0,0,0,410.4,337.946Z" transform="translate(-246.575 -149.595)" fill="#195f30"/>
        <path id="Path_88896" data-name="Path 88896" d="M282.124,254c1.2,8.461,2.961,16.68,6.35,24.15a55.312,55.312,0,0,0,14.247,19.342,57.7,57.7,0,0,0,21.222,11.366,77.648,77.648,0,0,0,24.755,2.854,52.778,52.778,0,0,1-25.76,1.284,51.179,51.179,0,0,1-23.776-11.37,49.731,49.731,0,0,1-14.64-21.935A57.209,57.209,0,0,1,282.124,254Z" transform="translate(-238.438 -125.363)" fill="#165127"/>
        <path id="Path_88897" data-name="Path 88897" d="M307.437,292.045a40.374,40.374,0,0,0,17.141-2.52,38.107,38.107,0,0,0,13.7-9.654,55.743,55.743,0,0,0,9.482-14.219,57.654,57.654,0,0,0,5.006-16.833,36.253,36.253,0,0,1-1.682,18.162A44.252,44.252,0,0,1,341.632,283a39.666,39.666,0,0,1-7.266,6.059,32.027,32.027,0,0,1-8.659,3.85A29.363,29.363,0,0,1,307.437,292.045Z" transform="translate(-232.449 -126.564)" fill="#165127"/>
        <path id="Path_88898" data-name="Path 88898" d="M344.039,183.705s3.515,16.962.787,25.213-52.17-2.659-52.17-2.659c-.938-13.5,2.08-28.225,2.08-28.225s-9.7,20.329-4.958,41.882,19.959,31.468,32.179,36.209c0,0-6.747-6.25-9.763-10.776a17.378,17.378,0,0,0,7.544,2.263c4.648,0,10.388-2.392,15.294-5.865-.366,4.667-1.592,11.2-5.379,15.563-6.462,7.437-22.792-1.185-22.792-1.185,27.534,26.254,37.412-10.135,41.12-33.784C350.686,212.439,351.212,198.648,344.039,183.705Z" transform="translate(-236.85 -142.994)" fill="#165127"/>
        <path id="Path_88899" data-name="Path 88899" d="M343.913,208.9c-.875-8.037-5.682-30.087-26.007-42.245-20.324,12.158-25.131,34.208-26.006,42.245s1.794,17.388,6.132,22.155C309,243.11,317.905,243.11,317.905,243.11s8.906,0,19.875-12.055C342.117,226.288,344.786,216.937,343.913,208.9Z" transform="translate(-236.093 -145.635)" fill="#ffd18d"/>
        <g id="Group_161602" data-name="Group 161602" transform="translate(61.662 48.83)">
          <circle id="Ellipse_17" data-name="Ellipse 17" cx="2.586" cy="2.586" r="2.586" transform="translate(5.763 7.504)" fill="#34495e"/>
          <circle id="Ellipse_18" data-name="Ellipse 18" cx="2.586" cy="2.586" r="2.586" transform="translate(29.365 7.504)" fill="#34495e"/>
          <path id="Path_88900" data-name="Path 88900" d="M331.988,193.548a18.2,18.2,0,0,0-6.96-2.117,12.511,12.511,0,0,0-3.461.275c-.6.08-1.172.313-1.8.455-.615.172-1.2.428-1.895.579a10.2,10.2,0,0,1,1.371-1.523A8.567,8.567,0,0,1,321,190.088a7.957,7.957,0,0,1,4.167-.85,8.321,8.321,0,0,1,4.036,1.309A7.525,7.525,0,0,1,331.988,193.548Z" transform="translate(-291.687 -189.227)" fill="#34495e"/>
          <path id="Path_88901" data-name="Path 88901" d="M306.374,215.273a29.219,29.219,0,0,0,8.053,1.448,21.588,21.588,0,0,0,3.982-.3c.691-.078,1.343-.27,2.059-.394.706-.147,1.38-.357,2.173-.492a10.011,10.011,0,0,1-1.554,1.2,11.2,11.2,0,0,1-1.994.909,13.9,13.9,0,0,1-9.458-.147A7.6,7.6,0,0,1,306.374,215.273Z" transform="translate(-294.357 -183.181)" fill="#e5a070"/>
          <path id="Path_88902" data-name="Path 88902" d="M296.621,193.548a18.2,18.2,0,0,1,6.96-2.117,12.511,12.511,0,0,1,3.461.275c.6.08,1.17.313,1.8.455.615.172,1.2.428,1.894.579a10.12,10.12,0,0,0-1.37-1.523,8.567,8.567,0,0,0-1.747-1.129,7.957,7.957,0,0,0-4.167-.85,8.321,8.321,0,0,0-4.036,1.309A7.516,7.516,0,0,0,296.621,193.548Z" transform="translate(-296.621 -189.227)" fill="#34495e"/>
          <path id="Path_88903" data-name="Path 88903" d="M316.72,209.534l-2.472-1.254a1.989,1.989,0,0,0-1.162-.012v-3.9a23.631,23.631,0,0,0-1.051,2.91,2.494,2.494,0,0,1-.781,1.32l-.8.973a.563.563,0,0,0,.393.945c1.974.068,3.832-.5,5.505-.011C316.829,210.645,317.081,209.879,316.72,209.534Z" transform="translate(-293.446 -185.712)" fill="#e5a070"/>
        </g>
        <path id="Path_88904" data-name="Path 88904" d="M300.653,180.675a28.361,28.361,0,0,1,30.363,0,50.563,50.563,0,0,0-15.181-14.016A50.577,50.577,0,0,0,300.653,180.675Z" transform="translate(-234.023 -145.635)" fill="#95a5a6"/>
        <g id="Group_161603" data-name="Group 161603" transform="translate(61.539 67.485)" opacity="0.25">
          <path id="Path_88905" data-name="Path 88905" d="M308.538,206.576c0,1.219-2.69,2.208-6.008,2.208s-6.009-.989-6.009-2.208,2.691-2.209,6.009-2.209S308.538,205.356,308.538,206.576Z" transform="translate(-296.521 -204.367)" fill="#ff6d55"/>
          <path id="Path_88906" data-name="Path 88906" d="M331.694,206.576c0,1.219-2.691,2.208-6.009,2.208s-6.008-.989-6.008-2.208,2.69-2.209,6.008-2.209S331.694,205.356,331.694,206.576Z" transform="translate(-291.146 -204.367)" fill="#ff6d55"/>
        </g>
      </g>
      <g id="Group_161609" data-name="Group 161609" transform="translate(0.863 175.006)">
        <g id="Group_161606" data-name="Group 161606" transform="translate(82.89)">
          <g id="Group_161605" data-name="Group 161605">
            <path id="Path_88907" data-name="Path 88907" d="M323.667,324.159c-2.093-14.927-4.73-22.22-4.638-29.088s-5.95-2.517-6.009,4.874.764,21.086,2.245,23.743S323.667,324.159,323.667,324.159Z" transform="translate(-312.449 -291.633)" fill="#e5a070"/>
            <path id="Path_88908" data-name="Path 88908" d="M331.512,330.413c-3.958-1.644-7.533-11.765-9.123-19.446-2.294-11.088-1.71-13.728-5.34-12.9-2.231.509-3.2,3.492-2.375,9.486s-7.284,37.24,3.678,40.7c4.073,1.288,11.934-2.164,11.934-2.164l43.249,1.858.532-19.924S337.828,333.039,331.512,330.413Z" transform="translate(-312.556 -290.172)" fill="#ffd18d"/>
            <path id="Path_88909" data-name="Path 88909" d="M329.767,336.05s-8.177,3.59-12.416,2.252c-2.1-.747-2.584-2.325-2.584-6.933,0-4.587-1.679-11.874-1.693-11.938a69.983,69.983,0,0,0-.26,14.09l0-.011c.078.68.18,1.333.3,1.966.021.111.048.213.07.323.1.5.214.986.346,1.449.016.057.026.12.042.175l.016.011c.861,2.916,2.341,5.063,4.768,5.829,4.073,1.288,11.934-2.164,11.934-2.164l43.249,1.858.134-5.021Z" transform="translate(-312.555 -285.181)" fill="#e5a070"/>
          </g>
          <path id="Path_88910" data-name="Path 88910" d="M332.216,325.065s10.268-2.162,20.428-3.134,8.44-1.406,16.439-2.7,14.268-4.337,19.456,2.7,5.187,18.564-2.81,21.986-20.547,2.124-28.977,1.692-20.305.4-23.718-1.692S332.216,325.065,332.216,325.065Z" transform="translate(-308.212 -285.64)" fill="#95a5a6"/>
          <path id="Path_88911" data-name="Path 88911" d="M387.489,334.324c-8.585,3.673-22.053,2.281-31.1,1.816-8.795-.451-21.052.371-25.1-1.642.081,3.038.534,5.637,1.747,6.381,3.413,2.091,15.287,1.259,23.718,1.692s20.978,1.73,28.977-1.692c4.227-1.809,6.2-5.888,6.375-10.367A10.5,10.5,0,0,1,387.489,334.324Z" transform="translate(-308.209 -282.609)" fill="#7f8c8d"/>
          <rect id="Rectangle_147719" data-name="Rectangle 147719" width="7.393" height="21.779" rx="2.087" transform="translate(18.095 37.357)" fill="#f1c40f"/>
          <path id="Path_88912" data-name="Path 88912" d="M332.064,336.627h-2.25a2.573,2.573,0,0,1-2.573-2.571v4.294a2.573,2.573,0,0,0,2.573,2.573h2.25a2.573,2.573,0,0,0,2.571-2.573v-4.294A2.572,2.572,0,0,1,332.064,336.627Z" transform="translate(-309.147 -281.786)" fill="#f39c12"/>
        </g>
        <g id="Group_161608" data-name="Group 161608">
          <g id="Group_161607" data-name="Group 161607" transform="translate(22.411)">
            <path id="Path_88913" data-name="Path 88913" d="M304.29,324.159c2.093-14.927,4.73-22.22,4.638-29.088s5.95-2.517,6.009,4.874-.764,21.086-2.246,23.743S304.29,324.159,304.29,324.159Z" transform="translate(-253.995 -291.633)" fill="#e5a070"/>
            <path id="Path_88914" data-name="Path 88914" d="M306.027,330.413c3.957-1.644,7.533-11.765,9.121-19.446,2.3-11.088,1.711-13.728,5.341-12.9,2.231.509,3.2,3.492,2.376,9.486s7.284,37.24-3.678,40.7c-4.075,1.288-11.934-2.164-11.934-2.164L264,347.95l-.534-19.924S299.711,333.039,306.027,330.413Z" transform="translate(-263.47 -290.172)" fill="#ffd18d"/>
            <path id="Path_88915" data-name="Path 88915" d="M320.155,336.078c-4.245,1.342-12.434-2.255-12.434-2.255l-43.913,1.888.118,4.39,43.249-1.858s7.86,3.451,11.934,2.164c3.162-1,4.731-4.315,5.392-8.664A7.205,7.205,0,0,1,320.155,336.078Z" transform="translate(-263.392 -282.323)" fill="#e5a070"/>
          </g>
          <path id="Path_88916" data-name="Path 88916" d="M305.2,325.065s-10.268-2.162-20.428-3.134-8.44-1.406-16.439-2.7-14.268-4.337-19.456,2.7-5.188,18.564,2.81,21.986,20.547,2.124,28.977,1.692,20.305.4,23.718-1.692S305.2,325.065,305.2,325.065Z" transform="translate(-245.281 -285.64)" fill="#95a5a6"/>
          <path id="Path_88917" data-name="Path 88917" d="M303.713,336.878c-2.015,2.425-18.839,2.533-18.839,2.533l4.527-4.473s-15.249,4.041-24.274,4.471c-8.6.41-18.227-4.115-19.674-11.326-.743,5.57,1.073,11.152,6.232,13.358,8,3.422,20.547,2.124,28.977,1.692s20.305.4,23.718-1.692a3.622,3.622,0,0,0,1.276-2.261A29.1,29.1,0,0,0,303.713,336.878Z" transform="translate(-245.278 -283.172)" fill="#7f8c8d"/>
          <rect id="Rectangle_147720" data-name="Rectangle 147720" width="7.393" height="21.779" rx="2.087" transform="translate(65.829 59.136) rotate(180)" fill="#f1c40f"/>
          <path id="Path_88918" data-name="Path 88918" d="M297.529,336.878h-2.25a2.572,2.572,0,0,1-2.571-2.571v3.985a2.573,2.573,0,0,0,2.571,2.573h2.25a2.573,2.573,0,0,0,2.573-2.573v-3.985A2.572,2.572,0,0,1,297.529,336.878Z" transform="translate(-234.273 -281.728)" fill="#f39c12"/>
        </g>
      </g>
    </g>
    <g id="Group_161619" data-name="Group 161619" transform="translate(123.517 160.114)">
      <g id="Group_161611" data-name="Group 161611" transform="translate(1.353 99.926)">
        <path id="Path_88919" data-name="Path 88919" d="M167.009,228.4c-13.744,4.473-25.089,27.471-32.072,36.9-10.2,13.771-27.619,65.095-27.11,63.488,1.406-4.438,14.477,7.129,20.524,5.578,10.539-2.7,18.008-13.2,18.008-13.2s16.775-36.485,23.29-52.14S167.009,228.4,167.009,228.4Z" transform="translate(-107.816 -213.263)" fill="#195f30"/>
        <path id="Path_88920" data-name="Path 88920" d="M224.454,228.4c13.745,4.473,28.931,27.955,33.745,40.316,4.258,10.934,23.887,48.583,26.107,62.146,2.064,12.6-39.713-11.849-39.713-11.849s-16.264-34.329-22.78-49.984S224.454,228.4,224.454,228.4Z" transform="translate(-81.9 -213.263)" fill="#195f30"/>
        <path id="Path_88921" data-name="Path 88921" d="M232.866,269.853,220.1,243.2c-.989,7.391-1.057,15.733,1.714,22.392,6.517,15.655,22.78,49.984,22.78,49.984s1.966,1.151,5.018,2.822a25.8,25.8,0,0,0,16.744-3.446s-8.19-2.177-11.207-4.322S234.455,274.623,232.866,269.853Z" transform="translate(-81.9 -209.828)" fill="#165127"/>
        <path id="Path_88922" data-name="Path 88922" d="M258.306,374.717c-2.378-32.09-8.914-140.247-12.48-143.813s-14.263-4.756-27.188-4.9l-17.655,2.3L183.329,226c-12.926.148-23.623,1.338-27.188,4.9s-10.1,111.722-12.48,143.813c-.646,8.715-2.643,30.672-2.643,30.672H260.949S258.951,383.432,258.306,374.717Z" transform="translate(-100.11 -213.819)" fill="#195f30"/>
        <path id="Path_88923" data-name="Path 88923" d="M259.138,316.662c-.165-.037-.329-.075-.5-.11-1.465-.293-3.1-.436-3.76.164a4.893,4.893,0,0,0-.8.983c-13.92-3-28.046-6.188-30.974-7.4-3.827-1.591-7.285-11.38-8.822-18.809-1.509-7.29-1.734-10.8-2.824-12.05a32.529,32.529,0,0,1-.323-4.735c.09-6.643-5.755-2.435-5.812,4.714a154.376,154.376,0,0,0,.9,16.909c-.265,2.141-.568,4.529-.828,7-.03-.276-.058-.552-.089-.826v0h0c-.264-2.4-.559-4.7-.811-6.757a156.679,156.679,0,0,0,.826-16.323c-.057-7.149-5.9-11.358-5.812-4.714a32.9,32.9,0,0,1-.352,4.968c-.946,1.423-1.227,4.928-2.653,11.817-1.538,7.43-4.995,17.219-8.822,18.809-2.469,1.025-12.9,3.456-24.457,5.988l-3.109-63.149-4.972,16.329,1.145-13.452c-2.83,6.929-21.419,49.443-22.39,51.06s-11.836,5.6-11.836,5.6l19.98,4.059c.654-.8,1.021-1.306,1.021-1.306s4.81-10.461,10.278-22.582c-.591,8.022-1.169,16.162-1.719,24.063h0l-.031.45q-.105,1.508-.208,3l-.086,1.244q-.076,1.1-.152,2.2c-.031.444-.06.885-.091,1.326q-.074,1.063-.145,2.114-.054.791-.107,1.575-.085,1.242-.169,2.468c-.338,4.933-.659,9.67-.96,14.1h0c-.637,9.378-1.184,17.388-1.6,23.037-.646,8.715-2.643,30.672-2.643,30.672h15.192l3.345-48.9h15.518l-15.518-7.076.324-5.195-.086-1.748,24.663-10.718s7.6,3.338,11.542,2.093a5.771,5.771,0,0,0,.951-.4c.06-.032.112-.075.17-.11a5.543,5.543,0,0,0,.679-.444c.041-.031.075-.073.116-.1a6.582,6.582,0,0,0,.637-.6c.015-.016.027-.036.042-.053,1.169-1.3,4.5-.347,4.574-.259.172.213.732.773.828.854a5.757,5.757,0,0,0,.639.465c.1.062.188.131.29.186a5.573,5.573,0,0,0,1.045.458c3.94,1.244,11.542-2.093,11.542-2.093l28.781,12.507c0,.046,0,.084.007.126s.007.095.01.139c0,.064.011.122.017.177,0,.025,0,.057.007.08l0,.027c.007.055.015.1.023.144,0,.021.007.046.011.064a.529.529,0,0,0,.041.127,4.731,4.731,0,0,0,1.74,1.04h0c1.5.665,3.471,1.349,3.943,1.511l.025.009.09.031s1.95,1.588,4.465,3.572C260.5,336.44,259.839,326.745,259.138,316.662Z" transform="translate(-104.511 -207.521)" fill="#165127"/>
        <path id="Path_88924" data-name="Path 88924" d="M212.507,220.423a6.467,6.467,0,0,0-3.243-3.566v3.07c-3.937,3.07-10.552,3.7-15.476,3.863-6.611.223-10.894-1.683-16.218-4.555v-3.121c-6.215,1.635-3.72,11.886-1.758,14.56,1.4,1.909,7.522,2.547,14.337,2.493v20.7a1.126,1.126,0,0,0,1.126,1.126h4.284a1.127,1.127,0,0,0,1.127-1.126V232.926c6.473-.409,12.436-1.272,14.485-2.1C212.469,230.3,213.3,222.9,212.507,220.423Z" transform="translate(-92.543 -216.114)" fill="#f1c40f"/>
        <path id="Path_88925" data-name="Path 88925" d="M189.909,228.081l-1.177-4.9h2.748Z" transform="translate(-89.035 -214.474)" fill="#f39c12"/>
        <path id="Path_88926" data-name="Path 88926" d="M209.952,219.8c0-1.3-.479-1.87-1.161-2.168v2.048c-3.937,3.07-10.552,3.7-15.476,3.863-6.611.223-10.894-1.683-16.218-4.555v-1.827c-1.01,0-1.98,1.428-1.09,3.369s8.128,4.93,16.938,4.93S209.952,222.154,209.952,219.8Z" transform="translate(-92.07 -215.87)" fill="#f39c12"/>
        <path id="Path_88927" data-name="Path 88927" d="M201.777,257.536c12.282,1.586,23.256-1.188,25.1-1.188s1,4.061.7,4.8-15.178.892-24.785.892C200.688,262.043,201.777,257.536,201.777,257.536Z" transform="translate(-86.073 -206.775)" fill="#f1c40f"/>
      </g>
      <g id="Group_161614" data-name="Group 161614" transform="translate(62.297)">
        <rect id="Rectangle_147721" data-name="Rectangle 147721" width="31.694" height="22.285" transform="translate(24.082 87.496)" fill="#ffd18d"/>
        <path id="Path_88928" data-name="Path 88928" d="M208.519,212.772l-25.753,15.539h-5.941V206.026h31.694Z" transform="translate(-152.743 -118.53)" fill="#e5a070"/>
        <g id="Group_161613" data-name="Group 161613">
          <path id="Path_88929" data-name="Path 88929" d="M195.528,147.846c-20.74,0-31.008,14.784-31.008,24.231V192.2c0,8.625,2.26,24.231,11.911,30.39a76.623,76.623,0,0,0,15.255,7.4,11.461,11.461,0,0,0,7.686,0,76.623,76.623,0,0,0,15.255-7.4c9.651-6.159,11.91-21.765,11.91-30.39V172.077C226.536,162.63,216.268,147.846,195.528,147.846Z" transform="translate(-155.599 -132.034)" fill="#ffd18d"/>
          <path id="Path_88930" data-name="Path 88930" d="M167.7,189.806s5.11-11.685,5.11-22.466c0,0,11.089,6.315,22.024,8.471,0,0-3.08-2.31-4.158-4.774,0,0,11.705,3.542,29.263,2.772,0,0,1.568,10.313,5.328,14.782,0,0,5.738-9.175,5.738-16.938s.177-12.013-2.749-14.785-63.19-3.234-65.632,3.85-.022,18.636,0,22.332S167.7,189.806,167.7,189.806Z" transform="translate(-156.292 -130.377)" fill="#34495e"/>
          <path id="Path_88931" data-name="Path 88931" d="M196.438,174.593H165.8c-2.948,0-5.008,0-4.992-5.3.108-36.261,35.628-34.256,35.628-34.256h-.047s35.519-2,35.628,34.256c.016,5.3-2.045,5.3-4.992,5.3H196.391" transform="translate(-156.46 -135.012)" fill="#95a5a6"/>
          <path id="Path_88932" data-name="Path 88932" d="M169.086,169.289c.085-28.533,22.088-33.37,31.467-34.137a34.121,34.121,0,0,0-4.139-.121c-.511-.026-35.5-1.738-35.6,34.257-.016,5.3,2.044,5.3,4.992,5.3h8.276C171.131,174.593,169.07,174.593,169.086,169.289Z" transform="translate(-156.46 -135.012)" fill="#7f8c8d"/>
          <g id="Group_161612" data-name="Group 161612" transform="translate(0 51.135)">
            <path id="Path_88933" data-name="Path 88933" d="M167.25,177.456c-7.228-3.657-8.831,4.312-9.857,7.187s5.134,15.607,9.035,11.911S168.4,178.04,167.25,177.456Z" transform="translate(-157.28 -176.514)" fill="#ffd18d"/>
            <path id="Path_88934" data-name="Path 88934" d="M214.286,177.456c7.228-3.657,8.829,4.312,9.857,7.187s-5.134,15.607-9.036,11.911S213.133,178.04,214.286,177.456Z" transform="translate(-144.398 -176.514)" fill="#ffd18d"/>
          </g>
          <path id="Path_88935" data-name="Path 88935" d="M160.438,180.006c1.292-.727,4.848-2.506,5.172,1.7s1.292,10.426-.566,11.316-5.174-2.749-5.092-4.931,4.284-2.008,4.284-2.008a18.507,18.507,0,0,0-.728-4.943C162.863,179.684,160.438,180.006,160.438,180.006Z" transform="translate(-156.66 -124.801)" fill="#e5a070"/>
          <path id="Path_88936" data-name="Path 88936" d="M220.1,180.006c-1.292-.727-4.85-2.506-5.172,1.7s-1.294,10.426.566,11.316,5.172-2.749,5.092-4.931-4.284-2.008-4.284-2.008a18.542,18.542,0,0,1,.727-4.943C217.68,179.684,220.1,180.006,220.1,180.006Z" transform="translate(-144.024 -124.801)" fill="#e5a070"/>
          <circle id="Ellipse_19" data-name="Ellipse 19" cx="2.586" cy="2.586" r="2.586" transform="translate(25.541 56.204)" fill="#34495e"/>
          <circle id="Ellipse_20" data-name="Ellipse 20" cx="2.586" cy="2.586" r="2.586" transform="translate(49.144 56.204)" fill="#34495e"/>
          <path id="Path_88937" data-name="Path 88937" d="M208.7,178.86a18.155,18.155,0,0,0-6.96-2.117,12.462,12.462,0,0,0-3.461.274c-.6.08-1.171.313-1.794.455-.616.173-1.205.428-1.895.58a10.011,10.011,0,0,1,1.371-1.524,8.523,8.523,0,0,1,1.746-1.129,7.956,7.956,0,0,1,4.167-.85,8.317,8.317,0,0,1,4.036,1.308A7.512,7.512,0,0,1,208.7,178.86Z" transform="translate(-148.62 -125.838)" fill="#34495e"/>
          <path id="Path_88938" data-name="Path 88938" d="M183.085,200.584a29.126,29.126,0,0,0,8.053,1.448,21.582,21.582,0,0,0,3.982-.3c.691-.078,1.344-.27,2.06-.394.706-.147,1.38-.357,2.172-.492a9.939,9.939,0,0,1-1.554,1.2,11.161,11.161,0,0,1-1.994.909,13.894,13.894,0,0,1-9.456-.147A7.594,7.594,0,0,1,183.085,200.584Z" transform="translate(-151.29 -119.793)" fill="#e5a070"/>
          <path id="Path_88939" data-name="Path 88939" d="M173.332,178.86a18.167,18.167,0,0,1,6.961-2.117,12.469,12.469,0,0,1,3.461.274c.6.08,1.171.313,1.794.455.615.173,1.2.428,1.9.58a10.077,10.077,0,0,0-1.371-1.524,8.565,8.565,0,0,0-1.747-1.129,7.954,7.954,0,0,0-4.166-.85,8.326,8.326,0,0,0-4.038,1.308A7.529,7.529,0,0,0,173.332,178.86Z" transform="translate(-153.554 -125.838)" fill="#34495e"/>
          <path id="Path_88940" data-name="Path 88940" d="M193.431,194.847l-2.47-1.254a1.979,1.979,0,0,0-1.163-.014v-3.9a23.522,23.522,0,0,0-1.05,2.91,2.494,2.494,0,0,1-.781,1.32l-.8.973a.564.564,0,0,0,.393.945c1.974.069,3.833-.5,5.505-.011C193.539,195.956,193.792,195.19,193.431,194.847Z" transform="translate(-150.379 -122.324)" fill="#e5a070"/>
        </g>
      </g>
      <g id="Group_161616" data-name="Group 161616" transform="translate(0 157.31)">
        <g id="Group_161615" data-name="Group 161615" transform="translate(23.528)">
          <path id="Path_88941" data-name="Path 88941" d="M181.27,294.147c2.026-14.438,4.575-21.49,4.485-28.133s5.755-2.435,5.812,4.714-.738,20.394-2.171,22.963S181.27,294.147,181.27,294.147Z" transform="translate(-112.942 -262.688)" fill="#e5a070"/>
          <path id="Path_88942" data-name="Path 88942" d="M186.8,300.2c3.827-1.589,7.284-11.379,8.822-18.808,2.219-10.724,1.655-13.277,5.165-12.478,2.159.492,3.1,3.377,2.3,9.174s7.045,36.018-3.557,39.368c-3.94,1.244-11.542-2.093-11.542-2.093l-60.24,26.177-1.931-27.66S180.691,302.735,186.8,300.2Z" transform="translate(-125.814 -261.275)" fill="#ffd18d"/>
          <path id="Path_88943" data-name="Path 88943" d="M198.954,304.809l.026-.154c.063-.416.12-.839.166-1.274.006-.057.011-.116.017-.174.036-.35.067-.706.092-1.066.012-.163.022-.326.032-.49.006-.1.015-.206.02-.311l0,.025a86.05,86.05,0,0,0-.633-13.419c-.68,2.033-2.456,7.68-2.543,11.423-.108,4.634.833,7.465-1.63,8.69a11.882,11.882,0,0,1-6.109.18A12.6,12.6,0,0,1,181.471,304v4.1l-28.828,9.934-2.039,3.1.637,3.238,30.99-13.467s7.6,3.338,11.542,2.093c2.7-.854,4.2-3.461,4.952-6.96l.022-.108Q198.864,305.385,198.954,304.809Z" transform="translate(-120.06 -256.825)" fill="#e5a070"/>
        </g>
        <path id="Path_88944" data-name="Path 88944" d="M159.453,299.559c4.017,3.629,4.548,21.2,4.062,22.134-.4.776-4.873,2.591-4.873,2.591s-9.244,6.774-13.717,9.849-10.437,2.516-16.215,4.007-13.046,3.355-17.891-4.007-6.9-21.9,2.422-28.235,40.141-5.5,40.141-5.5S158.125,298.359,159.453,299.559Z" transform="translate(-106.718 -254.218)" fill="#195f30"/>
        <path id="Path_88945" data-name="Path 88945" d="M157.151,310.569s-.4,5.642-1.535,6.132-8.244,5.722-10.992,7.016-12.59,3.132-18.106,5.1c-6.035,2.155-14.53,1.458-18.669-3.141a24.362,24.362,0,0,0,2.708,5.812c4.846,7.362,12.114,5.5,17.891,4.007s11.742-.931,16.215-4.007,13.717-9.849,13.717-9.849,1.061-.432,2.194-.963a20.1,20.1,0,0,0,.644-5.241C160.788,312.4,157.151,310.569,157.151,310.569Z" transform="translate(-106.456 -251.575)" fill="#165127"/>
        <path id="Path_88946" data-name="Path 88946" d="M154.725,321.693c.485-.933-.046-18.5-4.062-22.135-1.328-1.2-6.071.842-6.071.842s4.79,9.142,5.26,23.884C149.852,324.284,154.321,322.469,154.725,321.693Z" transform="translate(-97.928 -254.218)" fill="#f1c40f"/>
        <path id="Path_88947" data-name="Path 88947" d="M153.723,312.716a8.212,8.212,0,0,1-1.895,1.543c-.324-1.745-.695-3.466-1.158-5.169a30.656,30.656,0,0,0-2.4-6.34,30.211,30.211,0,0,1,1.448,6.53c.225,1.835.35,3.69.413,5.525-1.083.282-1.857.545-1.857.545l0,0a70.621,70.621,0,0,1,.727,8.1s4.469-1.815,4.873-2.591C154.083,320.459,154.1,316.9,153.723,312.716Z" transform="translate(-97.074 -253.39)" fill="#f39c12"/>
      </g>
      <g id="Group_161618" data-name="Group 161618" transform="translate(101.606 157.31)">
        <g id="Group_161617" data-name="Group 161617">
          <path id="Path_88948" data-name="Path 88948" d="M199.929,294.147c-2.024-14.438-4.575-21.49-4.485-28.133s-5.755-2.435-5.812,4.714.738,20.394,2.172,22.963S199.929,294.147,199.929,294.147Z" transform="translate(-189.08 -262.688)" fill="#e5a070"/>
          <path id="Path_88949" data-name="Path 88949" d="M207.517,300.2c-3.827-1.589-7.285-11.379-8.822-18.808-2.219-10.724-1.655-13.277-5.165-12.478-2.159.492-3.1,3.377-2.3,9.174s-7.045,36.018,3.557,39.368c3.94,1.244,11.542-2.093,11.542-2.093l60.24,26.177,1.931-27.66S213.625,302.735,207.517,300.2Z" transform="translate(-189.183 -261.275)" fill="#ffd18d"/>
          <path id="Path_88950" data-name="Path 88950" d="M206.447,305.084v-4.1s-1.4,4.85-5.6,5.6c-3.667.659-9.067-.313-11.418-5.658.577,4.535,2.088,8.037,5.308,9.054,3.94,1.244,11.542-2.093,11.542-2.093l30.447,13.232.59-3-2.038-3.1Z" transform="translate(-189.127 -253.811)" fill="#e5a070"/>
        </g>
        <path id="Path_88951" data-name="Path 88951" d="M230.649,299.567c-4.017,3.629-4.549,21.2-4.062,22.134.4.776,5.8,2.591,5.8,2.591s8.318,6.774,12.79,9.849,10.437,2.516,16.215,4.007,13.046,3.355,17.891-4.007,6.895-21.9-2.424-28.235-39.684-5.767-39.684-5.767S231.977,298.367,230.649,299.567Z" transform="translate(-180.537 -254.225)" fill="#195f30"/>
        <path id="Path_88952" data-name="Path 88952" d="M279.042,331.585a23.55,23.55,0,0,0,2.311-4.643c-4.576,3.668-12.34,4.094-18.01,2.069-5.7-2.034-15.861-3.934-18.7-5.27S234.462,317,233.292,316.5s-1.584-6.333-1.584-6.333-3.758,1.89-4.2,5.027a19.257,19.257,0,0,0,.58,4.995c1.714.76,4.06,1.551,4.06,1.551s8.318,6.774,12.79,9.849,10.437,2.516,16.215,4.007S274.2,338.946,279.042,331.585Z" transform="translate(-180.296 -251.669)" fill="#165127"/>
        <path id="Path_88953" data-name="Path 88953" d="M230.649,299.565c-4.017,3.63-4.549,21.2-4.062,22.135.4.776,5.8,2.591,5.8,2.591.558-14.6,4.788-24.153,4.788-24.153S231.977,298.367,230.649,299.565Z" transform="translate(-180.537 -254.225)" fill="#f1c40f"/>
        <path id="Path_88954" data-name="Path 88954" d="M230.132,312.834a32.117,32.117,0,0,1-3.4-2c-.377,4.187-.359,7.744-.147,8.149.4.776,5.8,2.591,5.8,2.591.107-2.82.355-5.447.679-7.857Z" transform="translate(-180.537 -251.512)" fill="#f39c12"/>
      </g>
    </g>
    <g id="Group_161620" data-name="Group 161620" transform="translate(252.471 57.516)">
      <path id="Path_88955" data-name="Path 88955" d="M272.729,125.081a38.631,38.631,0,0,1-18.675-72.445,47.717,47.717,0,1,0,52.494,52.494A38.616,38.616,0,0,1,272.729,125.081Z" transform="translate(-211.38 -52.636)" fill="#f1c40f"/>
      <path id="Path_88956" data-name="Path 88956" d="M251.129,52.636c-16.314,7.306-27.149,26.457-27.149,41.016a38.627,38.627,0,0,0,38.626,38.628c14.56,0,34.892-9.265,41.017-27.149a38.631,38.631,0,1,1-52.494-52.494Z" transform="translate(-208.455 -52.636)" fill="#f39c12"/>
      <path id="Path_88957" data-name="Path 88957" d="M270.4,86.242l-9.6,5.046L262.633,80.6l-7.765-7.569L265.6,71.473l4.8-9.724,4.8,9.724,10.731,1.559L278.162,80.6,280,91.288Z" transform="translate(-201.286 -50.521)" fill="#f1c40f"/>
      <path id="Path_88958" data-name="Path 88958" d="M262.959,69.952l-8.091,1.175,7.765,7.569L260.8,89.384l9.6-5.045,9.6,5.045-1.384-8.065A20.145,20.145,0,0,1,262.959,69.952Z" transform="translate(-201.286 -48.617)" fill="#f39c12"/>
    </g>
    <g id="Group_161621" data-name="Group 161621" transform="translate(34.343 31.61)">
      <path id="Path_88959" data-name="Path 88959" d="M94.983,36.525v.067a4.913,4.913,0,0,0-4.914,4.848h0a4.914,4.914,0,0,0-4.915-4.915,4.913,4.913,0,0,0,4.915-4.915A4.914,4.914,0,0,0,94.983,36.525Z" transform="translate(-22.55 -31.61)" fill="#f1c40f"/>
      <path id="Path_88960" data-name="Path 88960" d="M425.936,36.525v.067a4.913,4.913,0,0,0-4.914,4.848h0a4.914,4.914,0,0,0-4.914-4.915,4.913,4.913,0,0,0,4.914-4.915A4.914,4.914,0,0,0,425.936,36.525Z" transform="translate(54.267 -31.61)" fill="#f1c40f"/>
      <path id="Path_88961" data-name="Path 88961" d="M375.279,98.109v.065a4.914,4.914,0,0,0-4.914,4.85h0a4.913,4.913,0,0,0-4.915-4.915,4.914,4.914,0,0,0,4.915-4.915A4.915,4.915,0,0,0,375.279,98.109Z" transform="translate(42.509 -17.068)" fill="#f1c40f"/>
      <path id="Path_88962" data-name="Path 88962" d="M123.107,127.674v.107a7.984,7.984,0,0,0-7.985,7.879h0a7.986,7.986,0,0,0-7.987-7.987,7.986,7.986,0,0,0,7.987-7.987A7.986,7.986,0,0,0,123.107,127.674Z" transform="translate(-17.448 -10.805)" fill="#f1c40f"/>
      <path id="Path_88963" data-name="Path 88963" d="M458.582,171.906v.107a7.982,7.982,0,0,0-7.984,7.879h0a7.986,7.986,0,0,0-7.987-7.987,7.986,7.986,0,0,0,7.987-7.986A7.986,7.986,0,0,0,458.582,171.906Z" transform="translate(60.418 -0.357)" fill="#f1c40f"/>
      <path id="Path_88964" data-name="Path 88964" d="M73.116,252.693v.107a7.982,7.982,0,0,0-7.984,7.879h0a7.986,7.986,0,0,0-7.987-7.987,7.986,7.986,0,0,0,7.987-7.986A7.986,7.986,0,0,0,73.116,252.693Z" transform="translate(-29.051 18.726)" fill="#f1c40f"/>
      <path id="Path_88965" data-name="Path 88965" d="M450.9,309.746v.067a4.912,4.912,0,0,0-4.914,4.848h0a4.915,4.915,0,0,0-4.915-4.915,4.915,4.915,0,0,0,4.915-4.915A4.914,4.914,0,0,0,450.9,309.746Z" transform="translate(60.062 32.907)" fill="#f1c40f"/>
      <path id="Path_88966" data-name="Path 88966" d="M44.173,307.808v.067a4.912,4.912,0,0,0-4.914,4.848h0a4.915,4.915,0,0,0-4.915-4.915,4.915,4.915,0,0,0,4.915-4.915A4.915,4.915,0,0,0,44.173,307.808Z" transform="translate(-34.343 32.458)" fill="#f1c40f"/>
    </g>
  </g>
</svg>
