<svg xmlns="http://www.w3.org/2000/svg" xmlns:xlink="http://www.w3.org/1999/xlink" width="17" height="17" viewBox="0 0 17 17">
  <defs>
    <clipPath id="clip-path">
      <rect id="Rectangle_147642" data-name="Rectangle 147642" width="17" height="17" transform="translate(10942 -268)" fill="#959595"/>
    </clipPath>
  </defs>
  <g id="Mask_Group_99" data-name="Mask Group 99" transform="translate(-10942 268)" clip-path="url(#clip-path)" style="isolation: isolate">
    <g id="privacy-policy" transform="translate(10941.831 -268.169)">
      <path id="Path_88742" data-name="Path 88742" d="M2.207,2.1H7.741a.2.2,0,1,0,0-.406H2.207a.2.2,0,0,0,0,.406Z" fill="#959595"/>
      <path id="Path_88743" data-name="Path 88743" d="M7.43,14.017H1.9a.2.2,0,0,0,0,.406H7.43a.2.2,0,0,0,0-.406Z" fill="#959595"/>
      <path id="Path_88744" data-name="Path 88744" d="M7.43,12.476H1.9a.2.2,0,0,0,0,.406H7.43a.2.2,0,0,0,0-.406Z" fill="#959595"/>
      <path id="Path_88745" data-name="Path 88745" d="M2.02,3.637H13.087a.2.2,0,0,0,0-.406H2.02a.2.2,0,0,0,0,.406Z" fill="#959595"/>
      <path id="Path_88746" data-name="Path 88746" d="M2.02,5.178H13.087a.2.2,0,0,0,0-.406H2.02a.2.2,0,0,0,0,.406Z" fill="#959595"/>
      <path id="Path_88747" data-name="Path 88747" d="M2.02,6.719H13.087a.2.2,0,0,0,0-.406H2.02a.2.2,0,0,0,0,.406Z" fill="#959595"/>
      <path id="Path_88748" data-name="Path 88748" d="M2.02,8.26H13.087a.2.2,0,0,0,0-.406H2.02a.2.2,0,0,0,0,.406Z" fill="#959595"/>
      <path id="Path_88749" data-name="Path 88749" d="M2.02,9.8H13.087a.2.2,0,0,0,0-.406H2.02a.2.2,0,0,0,0,.406Z" fill="#959595"/>
      <path id="Path_88750" data-name="Path 88750" d="M2.02,11.341h8.41a.2.2,0,1,0,0-.406H2.02a.2.2,0,1,0,0,.406Z" fill="#959595"/>
      <path id="Path_88751" data-name="Path 88751" d="M14.208,11.264V1.059a.893.893,0,0,0-.895-.889H1.756a.893.893,0,0,0-.895.889v14.61a.893.893,0,0,0,.895.889h9.711a3.187,3.187,0,0,0,1.886.611,3.073,3.073,0,0,0,3.125-3.01A3.035,3.035,0,0,0,14.208,11.264Zm-12.941,4.4V1.059A.486.486,0,0,1,1.756.576H13.314a.486.486,0,0,1,.488.483V11.18a3.254,3.254,0,0,0-.449-.031,3.073,3.073,0,0,0-3.126,3.01,2.936,2.936,0,0,0,.785,1.992H1.756a.486.486,0,0,1-.488-.483Zm12.085,1.094a2.606,2.606,0,1,1,2.719-2.6,2.666,2.666,0,0,1-2.719,2.6Z" fill="#959595"/>
      <path id="Path_88752" data-name="Path 88752" d="M14.44,13.617h-.026v-.311a.694.694,0,0,0-.656-.725h-.773a.694.694,0,0,0-.656.725v.311H12.3a.271.271,0,0,0-.271.271v1.664a.271.271,0,0,0,.271.271H14.44a.271.271,0,0,0,.271-.271V13.888a.271.271,0,0,0-.271-.271Zm-1.7-.311a.3.3,0,0,1,.249-.319h.773a.3.3,0,0,1,.249.319v.311H12.736Zm1.568,2.11H12.44V14.023H14.3Z" fill="#959595"/>
      <path id="Path_88753" data-name="Path 88753" d="M13.237,15.08a.2.2,0,1,0,.406,0v-.209a.265.265,0,0,0,.068-.177.271.271,0,0,0-.542,0,.265.265,0,0,0,.068.177Z" fill="#959595"/>
    </g>
  </g>
</svg>
