<svg xmlns="http://www.w3.org/2000/svg" xmlns:xlink="http://www.w3.org/1999/xlink" width="91" height="91" viewBox="0 0 91 91">
  <defs>
    <clipPath id="clip-path">
      <rect id="Rectangle_147607" data-name="Rectangle 147607" width="91" height="91" transform="translate(798 3526)" fill="#b18c3c" stroke="#707070" stroke-width="1"/>
    </clipPath>
  </defs>
  <g id="Mask_Group_76" data-name="Mask Group 76" transform="translate(-798 -3526)" clip-path="url(#clip-path)" style="isolation: isolate">
    <g id="handshake" transform="translate(798 3526)">
      <path id="Path_83212" data-name="Path 83212" d="M83.365,10.337A26.223,26.223,0,0,0,45.5,11.28,26.136,26.136,0,1,0,8.3,47.937a9.161,9.161,0,0,0,5.146,15.641,9.167,9.167,0,0,0,9.092,9.758A9.155,9.155,0,0,0,33.97,81.542a9.162,9.162,0,0,0,15.287,4.08c2.8-2.779,5.019-4.531,5.16-8.74a9.17,9.17,0,0,0,8.686-8.8,9.166,9.166,0,0,0,8.8-8.8,9.173,9.173,0,0,0,8.808-9.37l2.654-2.654a26.141,26.141,0,0,0,0-36.927ZM12.3,52.186,14.8,49.693a3.3,3.3,0,0,1,4.673,4.673l-2.493,2.493A3.3,3.3,0,0,1,12.3,52.186ZM19.253,64.2a3.283,3.283,0,0,1,.968-2.337l2.494-2.494a3.3,3.3,0,0,1,4.672,4.674l-2.2,2.2a3.464,3.464,0,0,1-2.63,1.261A3.32,3.32,0,0,1,19.253,64.2Zm10.06,10.842a3.32,3.32,0,0,1,0-4.673l2.2-2.2a3.347,3.347,0,0,1,4.967-.293,3.308,3.308,0,0,1,0,4.673l-2.493,2.493a3.307,3.307,0,0,1-4.673,0ZM47.625,79,45.132,81.5a3.3,3.3,0,0,1-4.673,0,3.32,3.32,0,0,1,0-4.673l2.493-2.493A3.3,3.3,0,1,1,47.625,79ZM73.911,52.5a3.32,3.32,0,0,1-4.673,0L56.255,39.513l-4.126,4.126L65.112,56.622A3.3,3.3,0,0,1,60.439,61.3L47.676,48.532l-.22-.22L43.33,52.438l.22.22L56.314,65.421a3.3,3.3,0,1,1-4.673,4.673l0,0a9.143,9.143,0,0,0-8.676-2.264,9.183,9.183,0,0,0-8.8-6.754,9.173,9.173,0,0,0-7.918-8.426,9.159,9.159,0,0,0-13.572-8.6,20.316,20.316,0,1,1,28.7-28.65l-7.213,7.213,5.78,5.78a13.228,13.228,0,0,0,16.382,1.833L73.912,47.824a3.309,3.309,0,0,1,0,4.673Zm5.328-9.359-.889.889q-.152-.167-.313-.329L56.548,22.209l-2.063,2.063a7.378,7.378,0,0,1-10.423,0l-1.654-1.654,8.155-8.155c19.81-18.234,46.9,8.878,28.675,28.675Z" fill="#b18c3c"/>
    </g>
  </g>
</svg>
