<svg xmlns="http://www.w3.org/2000/svg" xmlns:xlink="http://www.w3.org/1999/xlink" width="24" height="24" viewBox="0 0 24 24">
  <defs>
    <clipPath id="clip-path">
      <rect id="Rectangle_147656" data-name="Rectangle 147656" width="24" height="24" fill="#fff"/>
    </clipPath>
  </defs>
  <g id="Mask_Group_118" data-name="Mask Group 118" clip-path="url(#clip-path)" style="isolation: isolate">
    <g id="Projects" transform="translate(0 0.002)">
      <g id="Group_10706" data-name="Group 10706">
        <path id="Path_88771" data-name="Path 88771" d="M22.99,14.278l-.5-.308.5-.31a1.652,1.652,0,0,0,0-3.044l-.5-.308.5-.31a2.109,2.109,0,0,0,0-3.6L13.1.313a2.1,2.1,0,0,0-2.2,0h0L1.01,6.4a2.109,2.109,0,0,0,0,3.6l.506.312-.5.308a1.652,1.652,0,0,0,0,3.043l.506.312-.5.308a1.873,1.873,0,0,0,0,3.324l9.89,6.086a2.1,2.1,0,0,0,2.2,0L22.99,17.6A1.873,1.873,0,0,0,22.99,14.278ZM1.745,7.6l9.888-6.085h0a.7.7,0,0,1,.73,0L22.257,7.6a.7.7,0,0,1,0,1.2l-9.891,6.083a.7.7,0,0,1-.731,0L1.743,8.8A.7.7,0,0,1,1.745,7.6Zm-.338,4.541c0-.024.063-.155.336-.322l1.115-.681,8.04,4.947a2.1,2.1,0,0,0,2.2,0l8.043-4.947,1.115.682c.274.167.336.3.336.322s-.063.155-.338.324l-9.891,6.083a.7.7,0,0,1-.731,0l-9.89-6.086C1.47,12.292,1.408,12.16,1.407,12.137ZM22.255,16.4l-9.891,6.084a.7.7,0,0,1-.731,0L1.743,16.4c-.447-.273-.447-.653,0-.926L2.858,14.8l8.04,4.947a2.1,2.1,0,0,0,2.2,0L21.142,14.8l1.115.682a.487.487,0,0,1,0,.927Z" transform="translate(0 -0.002)"/>
      </g>
    </g>
  </g>
</svg>
