<svg xmlns="http://www.w3.org/2000/svg" xmlns:xlink="http://www.w3.org/1999/xlink" width="24" height="24" viewBox="0 0 24 24">
  <defs>
    <clipPath id="clip-path">
      <rect id="Rectangle_147658" data-name="Rectangle 147658" width="24" height="24" fill="#fff"/>
    </clipPath>
  </defs>
  <g id="Mask_Group_121" data-name="Mask Group 121" clip-path="url(#clip-path)" style="isolation: isolate">
    <g id="Visualization">
      <path id="Path_88787" data-name="Path 88787" d="M22.692,12.367,22.917,12l-.225-.367a13.524,13.524,0,0,0-2.7-2.987,12.367,12.367,0,0,0-7.97-2.977A12.449,12.449,0,0,0,4.032,8.644,13.654,13.654,0,0,0,1.31,11.629L1.08,12l.23.371a13.654,13.654,0,0,0,2.722,2.985,12.449,12.449,0,0,0,7.989,2.975,12.367,12.367,0,0,0,7.969-2.977A13.518,13.518,0,0,0,22.692,12.367ZM19.053,14.3a10.825,10.825,0,0,1-7.032,2.62A10.906,10.906,0,0,1,4.966,14.3a13.269,13.269,0,0,1-2.2-2.3,13.269,13.269,0,0,1,2.2-2.3,10.775,10.775,0,0,1,14.088,0A13.1,13.1,0,0,1,21.24,12,13.1,13.1,0,0,1,19.053,14.3Zm0,0"/>
      <path id="Path_88788" data-name="Path 88788" d="M12,7.775A4.225,4.225,0,1,0,16.225,12,4.23,4.23,0,0,0,12,7.775Zm0,7.044A2.819,2.819,0,1,1,14.819,12,2.822,2.822,0,0,1,12,14.819Zm0,0"/>
      <path id="Path_88789" data-name="Path 88789" d="M1.406,1.406H4.342V0H0V4.289H1.406Zm0,0"/>
      <path id="Path_88790" data-name="Path 88790" d="M19.658,0V1.406h2.936V4.289H24V0Zm0,0"/>
      <path id="Path_88791" data-name="Path 88791" d="M1.406,19.711H0V24H4.342V22.594H1.406Zm0,0"/>
      <path id="Path_88792" data-name="Path 88792" d="M22.594,22.594H19.658V24H24V19.711H22.594Zm0,0"/>
    </g>
  </g>
</svg>
