<svg xmlns="http://www.w3.org/2000/svg" xmlns:xlink="http://www.w3.org/1999/xlink" width="19" height="19" viewBox="0 0 19 19">
  <defs>
    <clipPath id="clip-path">
      <rect id="Rectangle_147588" data-name="Rectangle 147588" width="19" height="19" transform="translate(12 9)" fill="#959595" stroke="#707070" stroke-width="1"/>
    </clipPath>
  </defs>
  <g id="Mask_Group_69" data-name="Mask Group 69" transform="translate(-12 -9)" clip-path="url(#clip-path)" style="isolation: isolate">
    <g id="Smock_Visibility_18_N" transform="translate(12 9)">
      <rect id="Canvas" width="19" height="19" fill="#959595" opacity="0"/>
      <path id="Path_83183" data-name="Path 83183" d="M12.99,4.528A7.9,7.9,0,0,0,9.5,3.661c-4.573,0-8.313,4.552-8.313,6.029,0,1.583,3.936,5.647,8.279,5.647,4.381,0,8.346-4.067,8.346-5.647C17.813,8.444,15.588,5.816,12.99,4.528ZM9.5,14.369A4.869,4.869,0,1,1,14.369,9.5,4.869,4.869,0,0,1,9.5,14.369Z" fill="#959595"/>
      <path id="Path_83184" data-name="Path 83184" d="M10.908,9.544A1.408,1.408,0,0,1,9.5,8.137a1.389,1.389,0,0,1,.713-1.2,2.607,2.607,0,0,0-.713-.11A2.672,2.672,0,1,0,12.172,9.5h0a2.488,2.488,0,0,0-.092-.633A1.385,1.385,0,0,1,10.908,9.544Z" fill="#959595"/>
    </g>
  </g>
</svg>
