<svg xmlns="http://www.w3.org/2000/svg" xmlns:xlink="http://www.w3.org/1999/xlink" width="24" height="24" viewBox="0 0 24 24">
  <defs>
    <clipPath id="clip-path">
      <rect id="Rectangle_147662" data-name="Rectangle 147662" width="24" height="24" transform="translate(1157 570)"/>
    </clipPath>
  </defs>
  <g id="Mask_Group_153" data-name="Mask Group 153" transform="translate(-1157 -570)" clip-path="url(#clip-path)" style="isolation: isolate">
    <g id="man" transform="translate(1157 569.999)">
      <path id="Path_89276" data-name="Path 89276" d="M20.724,13.9A75.193,75.193,0,0,1,19,6.3c-.028-.164-.056-.328-.094-.492a1.407,1.407,0,0,0-.816-2.55h-.1A6.13,6.13,0,0,0,15.741.919a8.093,8.093,0,0,0-7.486,0A6.1,6.1,0,0,0,6.01,3.258h-.1a1.407,1.407,0,0,0-.816,2.55c-.033.159-.066.323-.094.492a74.341,74.341,0,0,1-1.72,7.6,34.442,34.442,0,0,0-1.589,9.633A.47.47,0,0,0,2.156,24H21.845a.47.47,0,0,0,.469-.469A34.442,34.442,0,0,0,20.724,13.9ZM12,.938a5.54,5.54,0,0,1,4.889,2.32H7.111A5.53,5.53,0,0,1,12,.938ZM5.907,4.2H18.095a.469.469,0,0,1,0,.938H5.907A.469.469,0,0,1,5.907,4.2Zm10.3,18.868H7.791a30.34,30.34,0,0,1-.881-4.631c.122-.056.267-.108.431-.164a5.523,5.523,0,0,0,9.315,0c.164.056.309.108.431.164A30.9,30.9,0,0,1,16.21,23.064ZM12,18.962a3.267,3.267,0,0,0,2.639-1.336c.361.136.731.253,1.083.356a4.588,4.588,0,0,1-7.444,0c.352-.1.722-.22,1.078-.356A3.282,3.282,0,0,0,12,18.962ZM9.657,15.68V13.805a.47.47,0,0,1,.469-.469h3.75a.47.47,0,0,1,.469.469V15.68A2.344,2.344,0,0,1,9.657,15.68Zm5.428,1.111a3.239,3.239,0,0,0,.2-1.111v-.347a5.155,5.155,0,0,0,1.838-2.377,24.766,24.766,0,0,1,.061,4.5c-.286-.108-.614-.2-.966-.3C15.835,17.04,15.455,16.927,15.085,16.791Zm.2-2.681v-.3A1.41,1.41,0,0,0,13.876,12.4h-3.75a1.41,1.41,0,0,0-1.406,1.406v.3a3.929,3.929,0,0,1-1.2-2.869l.038-1.809c.806-1.969,8.077-1.969,8.883,0l.038,1.809A3.952,3.952,0,0,1,15.282,14.11ZM8.719,15.334v.347a3.239,3.239,0,0,0,.2,1.111c-.366.136-.75.248-1.125.356-.352.1-.68.2-.966.3a25.2,25.2,0,0,1,.061-4.5A5.127,5.127,0,0,0,8.719,15.334Zm8.461,7.73a26.561,26.561,0,0,0,.183-13.838s0-.009,0-.014a.016.016,0,0,0,0-.009c-.853-2.93-9.84-2.944-10.707,0,0,0,0,.009,0,.009a.017.017,0,0,1,0,.014,26.561,26.561,0,0,0,.183,13.838H2.63a34.756,34.756,0,0,1,1.552-8.921A76.811,76.811,0,0,0,5.925,6.455c.023-.127.047-.258.07-.38H18.01l.07.38a75.525,75.525,0,0,0,1.744,7.688,34.626,34.626,0,0,1,1.552,8.921Z"/>
      <path id="Path_89277" data-name="Path 89277" d="M13.876,10.29h0a.469.469,0,1,0,.469.469A.47.47,0,0,0,13.876,10.29Z"/>
      <path id="Path_89278" data-name="Path 89278" d="M10.125,10.29h0a.469.469,0,1,0,.469.469A.47.47,0,0,0,10.125,10.29Z"/>
      <path id="Path_89279" data-name="Path 89279" d="M12.657,14.335a1.313,1.313,0,0,1-1.313,0,.468.468,0,0,0-.469.811,2.267,2.267,0,0,0,2.25,0,.468.468,0,1,0-.469-.811Z"/>
    </g>
  </g>
</svg>
