<svg xmlns="http://www.w3.org/2000/svg" xmlns:xlink="http://www.w3.org/1999/xlink" width="48" height="48" viewBox="0 0 48 48">
  <defs>
    <clipPath id="clip-path">
      <rect id="Rectangle_147606" data-name="Rectangle 147606" width="48" height="48" transform="translate(1130 3450)" fill="#b18c3c" stroke="#707070" stroke-width="1"/>
    </clipPath>
  </defs>
  <g id="Mask_Group_71" data-name="Mask Group 71" transform="translate(-1130 -3450)" clip-path="url(#clip-path)" style="isolation: isolate">
    <g id="book_1_" data-name="book (1)" transform="translate(1130 3455.348)">
      <path id="Path_83187" data-name="Path 83187" d="M7.608,18.545a22.924,22.924,0,0,1,12.353,0,.732.732,0,0,0,.888-.484.672.672,0,0,0-.484-.848,24.144,24.144,0,0,0-13.12,0,.714.714,0,0,0-.484.888A.662.662,0,0,0,7.608,18.545Z" transform="translate(0.426 -1.749)" fill="#b18c3c"/>
      <path id="Path_83188" data-name="Path 83188" d="M7.608,14.912a22.924,22.924,0,0,1,12.353,0,.732.732,0,0,0,.888-.484.672.672,0,0,0-.484-.848,24.144,24.144,0,0,0-13.12,0,.714.714,0,0,0-.484.888A.635.635,0,0,0,7.608,14.912Z" transform="translate(0.426 -2.961)" fill="#b18c3c"/>
      <path id="Path_83189" data-name="Path 83189" d="M7.608,11.309a22.924,22.924,0,0,1,12.353,0,.732.732,0,0,0,.888-.484.672.672,0,0,0-.484-.848,24.144,24.144,0,0,0-13.12,0,.714.714,0,0,0-.484.888A.694.694,0,0,0,7.608,11.309Z" transform="translate(0.426 -4.162)" fill="#b18c3c"/>
      <path id="Path_83190" data-name="Path 83190" d="M7.608,22.178a22.924,22.924,0,0,1,12.353,0,.732.732,0,0,0,.888-.484.672.672,0,0,0-.484-.848,24.144,24.144,0,0,0-13.12,0,.714.714,0,0,0-.484.888A.662.662,0,0,0,7.608,22.178Z" transform="translate(0.426 -0.538)" fill="#b18c3c"/>
      <path id="Path_83191" data-name="Path 83191" d="M7.608,25.812a22.924,22.924,0,0,1,12.353,0,.732.732,0,0,0,.888-.484.672.672,0,0,0-.484-.848,24.144,24.144,0,0,0-13.12,0,.714.714,0,0,0-.484.888A.694.694,0,0,0,7.608,25.812Z" transform="translate(0.426 0.673)" fill="#b18c3c"/>
      <path id="Path_83192" data-name="Path 83192" d="M22.322,18.545a22.924,22.924,0,0,1,12.353,0,.732.732,0,0,0,.888-.484.672.672,0,0,0-.484-.848,24.144,24.144,0,0,0-13.12,0,.714.714,0,0,0-.484.888A.7.7,0,0,0,22.322,18.545Z" transform="translate(5.331 -1.749)" fill="#b18c3c"/>
      <path id="Path_83193" data-name="Path 83193" d="M22.322,14.912a22.924,22.924,0,0,1,12.353,0,.732.732,0,0,0,.888-.484.672.672,0,0,0-.484-.848,24.144,24.144,0,0,0-13.12,0,.714.714,0,0,0-.484.888A.665.665,0,0,0,22.322,14.912Z" transform="translate(5.331 -2.961)" fill="#b18c3c"/>
      <path id="Path_83194" data-name="Path 83194" d="M22.322,11.309a22.924,22.924,0,0,1,12.353,0,.732.732,0,0,0,.888-.484.672.672,0,0,0-.484-.848,24.144,24.144,0,0,0-13.12,0,.714.714,0,0,0-.484.888A.737.737,0,0,0,22.322,11.309Z" transform="translate(5.331 -4.162)" fill="#b18c3c"/>
      <path id="Path_83195" data-name="Path 83195" d="M22.322,22.178a22.924,22.924,0,0,1,12.353,0,.732.732,0,0,0,.888-.484.672.672,0,0,0-.484-.848,24.144,24.144,0,0,0-13.12,0,.714.714,0,0,0-.484.888A.7.7,0,0,0,22.322,22.178Z" transform="translate(5.331 -0.538)" fill="#b18c3c"/>
      <path id="Path_83196" data-name="Path 83196" d="M35.079,24.449a24.144,24.144,0,0,0-13.12,0,.714.714,0,0,0-.484.888.723.723,0,0,0,.848.484,22.924,22.924,0,0,1,12.353,0,.732.732,0,0,0,.888-.484A.714.714,0,0,0,35.079,24.449Z" transform="translate(5.331 0.663)" fill="#b18c3c"/>
      <path id="Path_83197" data-name="Path 83197" d="M48.676,10.476H45.729V8.337a.666.666,0,0,0-.363-.606A21.719,21.719,0,0,0,35.193,5.39a22.276,22.276,0,0,0-9.81,2.14,22.276,22.276,0,0,0-9.81-2.14A21.527,21.527,0,0,0,5.4,7.731a.75.75,0,0,0-.363.606v2.14H2.089a.724.724,0,0,0-.727.727V40.229a.745.745,0,0,0,.686.727H21.87a2.422,2.422,0,0,0,2.341,1.736h2.261a2.472,2.472,0,0,0,2.341-1.736H48.636a.745.745,0,0,0,.727-.686V11.2a.69.69,0,0,0-.686-.727Zm-4.36-1.7V36.233a22.732,22.732,0,0,0-9.124-1.817,22.87,22.87,0,0,0-9.124,1.817V8.781A21.588,21.588,0,0,1,35.193,6.8,22.077,22.077,0,0,1,44.316,8.781Zm-37.867,0A21.588,21.588,0,0,1,15.573,6.8,20.994,20.994,0,0,1,24.7,8.781V36.233a22.732,22.732,0,0,0-9.124-1.817,22.87,22.87,0,0,0-9.124,1.817ZM47.95,39.5h-19.7a.751.751,0,0,0-.727.727,1.069,1.069,0,0,1-1.05,1.05H24.212a1.069,1.069,0,0,1-1.05-1.05.751.751,0,0,0-.727-.727H2.816V11.889h2.22V37.363a.691.691,0,0,0,1.05.606,20.1,20.1,0,0,1,9.487-2.14,20.9,20.9,0,0,1,9.487,2.14.772.772,0,0,0,.727,0,20.1,20.1,0,0,1,9.487-2.14,20.9,20.9,0,0,1,9.487,2.14.7.7,0,0,0,1.05-.606V11.889h2.22Z" transform="translate(-1.362 -5.388)" fill="#b18c3c"/>
    </g>
  </g>
</svg>
