<svg xmlns="http://www.w3.org/2000/svg" xmlns:xlink="http://www.w3.org/1999/xlink" width="24" height="24" viewBox="0 0 24 24">
  <defs>
    <clipPath id="clip-path">
      <rect id="Rectangle_147653" data-name="Rectangle 147653" width="24" height="24" fill="#fff"/>
    </clipPath>
  </defs>
  <g id="Mask_Group_138" data-name="Mask Group 138" clip-path="url(#clip-path)">
    <g id="slider">
      <path id="Path_88872" data-name="Path 88872" d="M6.251,13a.75.75,0,0,1-.625-.334l-1.5-2.25a.75.75,0,0,1,0-.832l1.5-2.25a.75.75,0,0,1,1.248.832L5.651,10l1.223,1.834A.75.75,0,0,1,6.251,13Z"/>
      <path id="Path_88873" data-name="Path 88873" d="M17.749,13a.75.75,0,0,1-.623-1.166L18.349,10,17.126,8.166a.75.75,0,0,1,1.248-.832l1.5,2.25a.75.75,0,0,1,0,.832l-1.5,2.25A.75.75,0,0,1,17.749,13Z"/>
      <path id="Path_88874" data-name="Path 88874" d="M7,20.25A1.25,1.25,0,1,1,8.25,19,1.252,1.252,0,0,1,7,20.25Zm0-1.5a.25.25,0,0,0-.25.25c0,.275.5.275.5,0A.25.25,0,0,0,7,18.75Z"/>
      <path id="Path_88875" data-name="Path 88875" d="M12,20.25A1.25,1.25,0,1,1,13.25,19,1.252,1.252,0,0,1,12,20.25Zm0-1.5a.25.25,0,0,0-.25.25c0,.275.5.275.5,0A.25.25,0,0,0,12,18.75Z"/>
      <path id="Path_88876" data-name="Path 88876" d="M17,20.25A1.25,1.25,0,1,1,18.25,19,1.252,1.252,0,0,1,17,20.25Zm0-1.5a.25.25,0,0,0-.25.25c0,.275.5.275.5,0A.25.25,0,0,0,17,18.75Z"/>
      <path id="Path_88877" data-name="Path 88877" d="M21.25,24H2.75A2.752,2.752,0,0,1,0,21.25V2.75A2.752,2.752,0,0,1,2.75,0h18.5A2.752,2.752,0,0,1,24,2.75v18.5A2.752,2.752,0,0,1,21.25,24ZM2.75,1.5A1.252,1.252,0,0,0,1.5,2.75v18.5A1.252,1.252,0,0,0,2.75,22.5h18.5a1.252,1.252,0,0,0,1.25-1.25V2.75A1.252,1.252,0,0,0,21.25,1.5Z"/>
    </g>
  </g>
</svg>
