<svg xmlns="http://www.w3.org/2000/svg" xmlns:xlink="http://www.w3.org/1999/xlink" width="17" height="17" viewBox="0 0 17 17">
  <defs>
    <clipPath id="clip-path">
      <rect id="Rectangle_147643" data-name="Rectangle 147643" width="17" height="17" transform="translate(10942 -239)" fill="#959595"/>
    </clipPath>
  </defs>
  <g id="Mask_Group_100" data-name="Mask Group 100" transform="translate(-10942 239)" clip-path="url(#clip-path)" style="isolation: isolate">
    <g id="agreement" transform="translate(10941.654 -239.346)">
      <path id="Path_88754" data-name="Path 88754" d="M15.2,2.994a.921.921,0,0,0-.176-.27L13.085.652a.961.961,0,0,0-.3-.214L12.776.433a1,1,0,0,0-.408-.087H3.383a.947.947,0,0,0-.964.927V16.419a.947.947,0,0,0,.964.927H14.308a.947.947,0,0,0,.964-.927V3.344a.9.9,0,0,0-.071-.349ZM14.626,2.9l-1.513.149a.564.564,0,0,1-.464-.174.482.482,0,0,1-.131-.4L12.832.989Zm.232,13.514a.532.532,0,0,1-.549.512H3.383a.532.532,0,0,1-.549-.512V1.272A.532.532,0,0,1,3.383.76h8.986a.585.585,0,0,1,.087.007L12.112,2.4l0,.012a.9.9,0,0,0,.237.753.973.973,0,0,0,.716.307c.029,0,.058,0,.088,0l1.7-.168q0,.023,0,.046Z" fill="#959595"/>
      <path id="Path_88755" data-name="Path 88755" d="M3.85,2.883h6.442a.207.207,0,1,0,0-.415H3.85a.207.207,0,1,0,0,.415Z" fill="#959595"/>
      <path id="Path_88756" data-name="Path 88756" d="M3.85,4.556h6.442a.207.207,0,1,0,0-.415H3.85a.207.207,0,1,0,0,.415Z" fill="#959595"/>
      <path id="Path_88757" data-name="Path 88757" d="M13.916,5.815H3.85a.207.207,0,1,0,0,.415H13.916a.207.207,0,1,0,0-.415Z" fill="#959595"/>
      <path id="Path_88758" data-name="Path 88758" d="M13.916,7.488H3.85a.207.207,0,0,0,0,.415H13.916a.207.207,0,1,0,0-.415Z" fill="#959595"/>
      <path id="Path_88759" data-name="Path 88759" d="M13.916,9.161H3.85a.207.207,0,0,0,0,.415H13.916a.207.207,0,1,0,0-.415Z" fill="#959595"/>
      <path id="Path_88760" data-name="Path 88760" d="M13.916,10.834H3.85a.207.207,0,0,0,0,.415H13.916a.207.207,0,1,0,0-.415Z" fill="#959595"/>
      <path id="Path_88761" data-name="Path 88761" d="M13.916,12.492H3.85a.207.207,0,0,0,0,.415H13.916a.207.207,0,1,0,0-.415Z" fill="#959595"/>
      <path id="Path_88762" data-name="Path 88762" d="M7.1,15.113a.885.885,0,0,1-.462.123.847.847,0,0,1-.383-.1.581.581,0,0,1-.127-.091.371.371,0,0,0-.251-.114.482.482,0,0,0-.4.251.762.762,0,0,1-.2.2.645.645,0,0,1-.562.048.427.427,0,0,1-.144-.117,1,1,0,0,0,.469-.2,1.074,1.074,0,0,0,.3-.382.537.537,0,0,0,0-.527.568.568,0,0,0-.4-.233.886.886,0,0,0-.667.153.859.859,0,0,0-.284.7l-.014-.006a.207.207,0,1,0-.163.381,1.552,1.552,0,0,0,.27.088.873.873,0,0,0,.853.6,1.07,1.07,0,0,0,.562-.156,1.144,1.144,0,0,0,.308-.3c.016-.021.035-.046.051-.065a.967.967,0,0,0,.194.136,1.263,1.263,0,0,0,.57.145,1.3,1.3,0,0,0,.68-.179.207.207,0,0,0-.209-.358Zm-2.681-.193v0a.524.524,0,0,1,.121-.457.445.445,0,0,1,.262-.075.5.5,0,0,1,.08.006A.189.189,0,0,1,5,14.439a.462.462,0,0,1-.208.358.625.625,0,0,1-.372.123Z" fill="#959595"/>
    </g>
  </g>
</svg>
