<svg xmlns="http://www.w3.org/2000/svg" xmlns:xlink="http://www.w3.org/1999/xlink" width="24" height="24" viewBox="0 0 24 24">
  <defs>
    <clipPath id="clip-path">
      <rect id="Rectangle_147660" data-name="Rectangle 147660" width="24" height="24" fill="#fff"/>
    </clipPath>
  </defs>
  <g id="Mask_Group_123" data-name="Mask Group 123" clip-path="url(#clip-path)">
    <g id="Women_Section" data-name="Women Section" transform="translate(2.248 0)">
      <g id="Group_10724" data-name="Group 10724" transform="translate(4.463 3.488)">
        <path id="Path_88794" data-name="Path 88794" d="M11.974,3.488c-2.9,0-5.26,2.752-5.26,6.137s2.358,6.137,5.26,6.137,5.26-2.752,5.26-6.137S14.876,3.488,11.974,3.488Zm0,12.04c-2.771,0-5.026-2.649-5.026-5.9s2.255-5.9,5.026-5.9S17,6.371,17,9.625,14.75,15.528,11.974,15.528Z" transform="translate(-6.714 -3.488)" fill="red" stroke="#000" stroke-miterlimit="10" stroke-width="0.281"/>
        <path id="Path_88795" data-name="Path 88795" d="M11.974,3.488c-2.9,0-5.26,2.752-5.26,6.137s2.358,6.137,5.26,6.137,5.26-2.752,5.26-6.137S14.876,3.488,11.974,3.488Zm0,12.04c-2.771,0-5.026-2.649-5.026-5.9s2.255-5.9,5.026-5.9S17,6.371,17,9.625,14.75,15.528,11.974,15.528Z" transform="translate(-6.714 -3.488)" fill="red" stroke="#000" stroke-miterlimit="10" stroke-width="0.281"/>
      </g>
      <path id="Path_88796" data-name="Path 88796" d="M21.754,21.81A2.379,2.379,0,0,0,20.122,19.6l-.347-.117a2.454,2.454,0,0,0-.609-3.005,1.837,1.837,0,0,1-.53-1.317V6.7a6.634,6.634,0,1,0-13.268-.07v8.519a1.833,1.833,0,0,1-.53,1.322,2.459,2.459,0,0,0-.609,3l-.352.117A2.381,2.381,0,0,0,2.264,21.6c-.023.094-.009,1.9-.014,2.044a.352.352,0,1,0,.7,0v-1.8A1.678,1.678,0,0,1,4.1,20.258l.544-.183c2.963,3.226,11.74,3.226,14.712,0l.544.178a1.673,1.673,0,0,1,1.149,1.571v1.819a.352.352,0,0,0,.7,0V21.81ZM17.3,20.723C14.107,22.293,7.764,22.3,5.176,19.611a1.871,1.871,0,0,1-.52-1.233,2.006,2.006,0,0,1,.68-1.407,2.537,2.537,0,0,0,.736-1.828V6.634a5.931,5.931,0,1,1,11.862.07v8.439a2.537,2.537,0,0,0,.736,1.833C20.193,18.482,18.913,19.958,17.3,20.723Z" transform="translate(-2.25 0)"/>
      <path id="Path_88797" data-name="Path 88797" d="M12.016,5.031A6.912,6.912,0,0,0,8,6.315a4.465,4.465,0,0,1,7.951-.056A6.88,6.88,0,0,0,12.016,5.031Z" transform="translate(-2.25 0)"/>
      <path id="Path_88798" data-name="Path 88798" d="M9.953,8.13a1.408,1.408,0,0,0-1.008.506.351.351,0,0,0,.539.45.685.685,0,0,1,1.064,0,.351.351,0,0,0,.539-.45A1.406,1.406,0,0,0,9.953,8.13Z" transform="translate(-2.25 0)"/>
      <path id="Path_88799" data-name="Path 88799" d="M13.1,9.128a.355.355,0,0,0,.5-.047.685.685,0,0,1,1.064,0,.353.353,0,0,0,.539-.455,1.44,1.44,0,0,0-1.135-.5,1.408,1.408,0,0,0-1.008.506A.351.351,0,0,0,13.1,9.128Z" transform="translate(-2.25 0)"/>
      <path id="Path_88800" data-name="Path 88800" d="M10.91,12.185a.35.35,0,1,0-.549.436,2.1,2.1,0,0,0,3.291,0,.35.35,0,1,0-.549-.436,1.414,1.414,0,0,1-2.194,0Z" transform="translate(-2.25 0)"/>
      <path id="Path_88801" data-name="Path 88801" d="M11.965,18.589a3.786,3.786,0,0,1-2.2.042,3.723,3.723,0,0,1-1.51-.863.352.352,0,1,0-.483.511,4.448,4.448,0,0,0,1.8,1.027,4.264,4.264,0,0,0,1.21.169,4.626,4.626,0,0,0,1.407-.22A.35.35,0,1,0,11.965,18.589Z" transform="translate(-2.25 0)"/>
    </g>
  </g>
</svg>
