<svg xmlns="http://www.w3.org/2000/svg" xmlns:xlink="http://www.w3.org/1999/xlink" width="24" height="24" viewBox="0 0 24 24">
  <defs>
    <clipPath id="clip-path">
      <rect id="Rectangle_147659" data-name="Rectangle 147659" width="24" height="24" fill="#fff"/>
    </clipPath>
  </defs>
  <g id="Mask_Group_122" data-name="Mask Group 122" clip-path="url(#clip-path)">
    <g id="Librery" transform="translate(3.03)">
      <g id="Group_10723" data-name="Group 10723">
        <path id="Path_88793" data-name="Path 88793" d="M19.573,0H6.064A3.04,3.04,0,0,0,3.03,3.02V20.98A3.04,3.04,0,0,0,6.064,24H19.581a1.352,1.352,0,0,0,1.389-1.369V1.4A1.4,1.4,0,0,0,19.573,0ZM13.579,1.143h3.357V6.5L15.744,4.6a.571.571,0,0,0-.98,0L13.579,6.494V1.143ZM4.187,3.02A1.886,1.886,0,0,1,6.064,1.143h6.371V6.971A1.031,1.031,0,0,0,13.147,8a1.11,1.11,0,0,0,1.223-.6l.889-1.429L16.147,7.4a1.129,1.129,0,0,0,1.234.6,1.031,1.031,0,0,0,.711-1.023V1.157h1.489a.243.243,0,0,1,.24.24V17.968a1.393,1.393,0,0,0-.24-.02H6.064a3.017,3.017,0,0,0-1.877.654V3.02ZM19.821,20.414l-13.174.014a.571.571,0,0,0,0,1.143l13.174-.014V22.62a.234.234,0,0,1-.24.24H6.064a1.879,1.879,0,1,1,0-3.757H19.581a.243.243,0,0,1,.24.24v1.071Z" transform="translate(-3.03)"/>
      </g>
    </g>
  </g>
</svg>
