<svg xmlns="http://www.w3.org/2000/svg" xmlns:xlink="http://www.w3.org/1999/xlink" width="17" height="17" viewBox="0 0 17 17">
  <defs>
    <clipPath id="clip-path">
      <rect id="Rectangle_147645" data-name="Rectangle 147645" width="17" height="17" transform="translate(10942 -210)" fill="#959595"/>
    </clipPath>
  </defs>
  <g id="Mask_Group_101" data-name="Mask Group 101" transform="translate(-10942 210)" clip-path="url(#clip-path)" style="isolation: isolate">
    <g id="headphones" transform="translate(10942 -210)">
      <g id="Group_161159" data-name="Group 161159">
        <path id="Path_88763" data-name="Path 88763" d="M14.315,5.815a5.815,5.815,0,0,0-11.631,0A1.754,1.754,0,0,0,1.069,7.721v3.037A1.8,1.8,0,0,0,3.008,12.7h.937a.323.323,0,0,0,.323-.323V6.119A.323.323,0,0,0,3.945,5.8H3.331a5.169,5.169,0,1,1,10.338,0h-.614a.323.323,0,0,0-.323.323v6.245a.323.323,0,0,0,.323.323h.614c-.09,2.219-1.157,2.74-3.286,2.833V15.3a.646.646,0,0,0-.646-.646H7.705a.646.646,0,0,0-.646.646v1.05A.646.646,0,0,0,7.705,17H9.744a.646.646,0,0,0,.646-.646v-.187c2.048-.094,3.819-.517,3.925-3.5a1.754,1.754,0,0,0,1.615-1.906V7.725A1.751,1.751,0,0,0,14.315,5.815Zm-10.694.6v5.621h-.63A1.173,1.173,0,0,1,1.7,10.749V7.712A1.174,1.174,0,0,1,2.992,6.419Zm6.122,9.447v.491H7.705v-1.05H9.744Zm5.541-5.108a1.174,1.174,0,0,1-1.292,1.292h-.614V6.442h.63A1.173,1.173,0,0,1,15.3,7.734Z" fill="#959595"/>
      </g>
    </g>
  </g>
</svg>
