<svg xmlns="http://www.w3.org/2000/svg" xmlns:xlink="http://www.w3.org/1999/xlink" width="23" height="23" viewBox="0 0 23 23">
  <defs>
    <clipPath id="clip-path">
      <rect id="Rectangle_64" data-name="Rectangle 64" width="23" height="23" transform="translate(139 316)" fill="#277f66"/>
    </clipPath>
  </defs>
  <g id="Mask_Group_16" data-name="Mask Group 16" transform="translate(-139 -316)" clip-path="url(#clip-path)" style="isolation: isolate">
    <g id="pdf" transform="translate(141.875 316)">
      <g id="Group_10718" data-name="Group 10718">
        <g id="Group_10717" data-name="Group 10717">
          <path id="Path_9998" data-name="Path 9998" d="M19.235,4.932,14.443.14A.479.479,0,0,0,14.1,0H4.042A1.919,1.919,0,0,0,2.125,1.917V21.083A1.919,1.919,0,0,0,4.042,23H17.458a1.919,1.919,0,0,0,1.917-1.917V5.271A.479.479,0,0,0,19.235,4.932Zm-4.651-3.3,3.156,3.156h-2.2a.96.96,0,0,1-.958-.958Zm3.833,19.447a.96.96,0,0,1-.958.958H4.042a.96.96,0,0,1-.958-.958V1.917A.96.96,0,0,1,4.042.958h9.583V3.833A1.919,1.919,0,0,0,15.542,5.75h2.875Z" transform="translate(-2.125)" fill="#277f66"/>
          <path id="Path_9999" data-name="Path 9999" d="M12.443,12.067a13.887,13.887,0,0,1-1.146-.989c-.365-.365-.69-.719-.973-1.056a10.728,10.728,0,0,0,.634-2.439c0-1.591-.575-1.917-1.437-1.917-.656,0-1.437.341-1.437,1.963a4.6,4.6,0,0,0,1.168,2.592c-.19.58-.413,1.248-.664,2-.121.362-.252.7-.39,1.007-.113.05-.222.1-.328.154-.381.19-.743.362-1.078.521-1.53.724-2.541,1.2-2.541,2.15,0,.687.746,1.112,1.438,1.112.891,0,2.236-1.19,3.219-3.195a19.064,19.064,0,0,1,3.289-.887,5.5,5.5,0,0,0,2.117,1.207c1.188,0,1.438-.687,1.438-1.263,0-1.133-1.294-1.133-1.917-1.133A11.35,11.35,0,0,0,12.443,12.067ZM5.688,16.208a.757.757,0,0,1-.479-.154c0-.34,1.013-.82,1.993-1.284l.19-.089C6.671,15.725,5.959,16.208,5.688,16.208ZM9.042,7.629c0-1,.312-1,.479-1,.339,0,.479,0,.479.958a7.683,7.683,0,0,1-.381,1.5A2.944,2.944,0,0,1,9.042,7.629Zm.367,5.15q.045-.125.087-.253c.178-.533.338-1.013.481-1.444q.3.328.643.673c.09.09.313.292.609.545C10.638,12.429,10.01,12.589,9.409,12.779Zm5.383.249c0,.215,0,.3-.445.307a3.532,3.532,0,0,1-.8-.46c.135-.015.235-.022.291-.022C14.541,12.854,14.742,12.923,14.792,13.029Z" transform="translate(-1.375 2)" fill="#277f66"/>
        </g>
      </g>
    </g>
  </g>
</svg>
