<svg xmlns="http://www.w3.org/2000/svg" xmlns:xlink="http://www.w3.org/1999/xlink" width="91" height="91" viewBox="0 0 91 91">
  <defs>
    <clipPath id="clip-path">
      <rect id="Rectangle_147609" data-name="Rectangle 147609" width="91" height="91" transform="translate(156 3526)" fill="#b18c3c" stroke="#707070" stroke-width="1"/>
    </clipPath>
  </defs>
  <g id="Mask_Group_78" data-name="Mask Group 78" transform="translate(-156 -3526)" clip-path="url(#clip-path)" style="isolation: isolate">
    <path id="goal" d="M84.32,21.761l4.413-4.413a2.666,2.666,0,0,0-1.661-4.542l-8.188-.691-.691-8.188a2.666,2.666,0,0,0-4.541-1.661L69.239,6.68A45.5,45.5,0,0,0,13.326,77.674,45.5,45.5,0,0,0,84.32,21.761ZM73.76,14.808a2.667,2.667,0,0,0,2.433,2.433l4.711.4-6.376,6.376-6.954-.587-.587-6.954L73.362,10.1ZM54.564,45.5a9.073,9.073,0,1,1-4.826-8.009l-6.123,6.124a2.666,2.666,0,1,0,3.77,3.77l6.124-6.123A9,9,0,0,1,54.564,45.5Zm-.95-11.885a14.412,14.412,0,1,0,3.771,3.771L65,29.774A25.09,25.09,0,1,1,61.226,26ZM73.9,73.9A40.168,40.168,0,1,1,17.1,17.1a40.186,40.186,0,0,1,48.251-6.526l-3.007,3.007a2.666,2.666,0,0,0-.78,1.817c0,.1,0,.194.008.292l.359,4.254a30.417,30.417,0,1,0,9.131,9.131l4.254.359c.075.006.15.009.224.009l.038,0c.035,0,.07,0,.106,0,.058,0,.116-.007.173-.014l.106-.016c.056-.009.112-.019.167-.032l.1-.026c.054-.015.108-.031.161-.049.035-.012.069-.024.1-.037.052-.02.1-.042.155-.067.033-.015.065-.029.1-.046.051-.026.1-.056.151-.085l.089-.053c.053-.035.1-.072.154-.11.024-.018.048-.034.071-.053a2.643,2.643,0,0,0,.209-.187l3.007-3.007A40.186,40.186,0,0,1,73.9,73.9Zm0,0" transform="translate(156 3526)" fill="#b18c3c"/>
  </g>
</svg>
