<svg xmlns="http://www.w3.org/2000/svg" xmlns:xlink="http://www.w3.org/1999/xlink" width="16" height="16" viewBox="0 0 16 16">
  <defs>
    <clipPath id="clip-path">
      <rect id="Rectangle_17" data-name="Rectangle 17" width="16" height="16"/>
    </clipPath>
  </defs>
  <g id="Mask_Group_97" data-name="Mask Group 97" clip-path="url(#clip-path)" style="isolation: isolate">
    <g id="menu" transform="translate(0 2.5)">
      <g id="Menu-2" data-name="Menu">
        <path id="Path_88738" data-name="Path 88738" d="M15.5,3.5H.5a.5.5,0,0,1,0-1h15a.5.5,0,1,1,0,1Z" transform="translate(0 -2.5)"/>
        <path id="Path_88739" data-name="Path 88739" d="M.5,7.5h15a.5.5,0,1,1,0,1H.5a.5.5,0,0,1,0-1Z" transform="translate(0 -2.5)"/>
        <path id="Path_88740" data-name="Path 88740" d="M.5,12.5h15a.5.5,0,1,1,0,1H.5a.5.5,0,0,1,0-1Z" transform="translate(0 -2.5)"/>
      </g>
    </g>
  </g>
</svg>
