<svg xmlns="http://www.w3.org/2000/svg" xmlns:xlink="http://www.w3.org/1999/xlink" width="91" height="91" viewBox="0 0 91 91">
  <defs>
    <clipPath id="clip-path">
      <rect id="Rectangle_147606" data-name="Rectangle 147606" width="91" height="91" transform="translate(1119 3526)" fill="#b18c3c" stroke="#707070" stroke-width="1"/>
    </clipPath>
  </defs>
  <g id="Mask_Group_75" data-name="Mask Group 75" transform="translate(-1119 -3526)" clip-path="url(#clip-path)" style="isolation: isolate">
    <g id="Donaition" transform="translate(1119 3526.001)">
      <g id="Group_160960" data-name="Group 160960">
        <g id="Group_160959" data-name="Group 160959">
          <path id="Path_83208" data-name="Path 83208" d="M62.561,53.082a1.908,1.908,0,0,1-1.4-.61L38.53,27.9a17.328,17.328,0,0,1,0-23.049,14.507,14.507,0,0,1,21.654,0l2.377,2.582,2.377-2.582a14.506,14.506,0,0,1,21.65,0,17.328,17.328,0,0,1,0,23.049L63.952,52.468a1.883,1.883,0,0,1-1.392.614Zm-13.2-49.29A10.865,10.865,0,0,0,41.324,7.42a13.458,13.458,0,0,0,0,17.911l21.24,23.056L83.8,25.331a13.458,13.458,0,0,0,0-17.911,10.952,10.952,0,0,0-16.069,0l-3.773,4.095a1.961,1.961,0,0,1-2.791,0L57.4,7.42a10.906,10.906,0,0,0-8.042-3.629Z" fill="#b18c3c"/>
        </g>
      </g>
      <g id="Group_160962" data-name="Group 160962">
        <g id="Group_160961" data-name="Group 160961">
          <path id="Path_83209" data-name="Path 83209" d="M13.27,83.414H1.9a1.9,1.9,0,0,1-1.9-1.9V47.395a1.9,1.9,0,0,1,1.9-1.9c12.9,0,19.709,4.345,19.993,4.531a1.9,1.9,0,0,1,.8,2.055l-7.583,29.9a1.887,1.887,0,0,1-1.835,1.429ZM3.792,79.623h8l6.855-27.034A37.922,37.922,0,0,0,3.792,49.324Z" fill="#b18c3c"/>
        </g>
      </g>
      <g id="Group_160964" data-name="Group 160964">
        <g id="Group_160963" data-name="Group 160963">
          <path id="Path_83210" data-name="Path 83210" d="M49.29,91c-8.948,0-26.249-7.522-35.766-12.012a1.895,1.895,0,1,1,1.615-3.428c7.431,3.5,25.635,11.648,34.151,11.648,9.225,0,30.958-10.832,37.21-14.052-.986-1.289-3.022-3.01-6.878-3.01-3.5,0-7.936,1.4-12.228,2.756-4.561,1.437-9.282,2.931-13.365,2.931-7.826,0-18.222-3.746-18.658-3.905a1.9,1.9,0,0,1,1.3-3.564c.1.038,10.207,3.678,17.362,3.678,3.5,0,7.936-1.4,12.228-2.756,4.561-1.437,9.282-2.931,13.365-2.931,8.85,0,11.181,6.7,11.28,6.984A1.9,1.9,0,0,1,90,75.611C88.817,76.233,61.006,91,49.29,91Z" fill="#b18c3c"/>
        </g>
      </g>
      <g id="Group_160966" data-name="Group 160966">
        <g id="Group_160965" data-name="Group 160965">
          <path id="Path_83211" data-name="Path 83211" d="M62.561,74.277a1.9,1.9,0,0,1-1.9-1.9v-1.9a5.612,5.612,0,0,0-4.338-5.505l-36.6-8.838a1.9,1.9,0,0,1,.891-3.689L57.2,61.287a9.391,9.391,0,0,1,7.253,9.2v1.9A1.9,1.9,0,0,1,62.561,74.277Z" fill="#b18c3c"/>
        </g>
      </g>
    </g>
  </g>
</svg>
