<svg xmlns="http://www.w3.org/2000/svg" xmlns:xlink="http://www.w3.org/1999/xlink" width="24" height="24" viewBox="0 0 24 24">
  <defs>
    <clipPath id="clip-path">
      <rect id="Rectangle_147661" data-name="Rectangle 147661" width="24" height="24" fill="#fff"/>
    </clipPath>
  </defs>
  <g id="Mask_Group_124" data-name="Mask Group 124" clip-path="url(#clip-path)" style="isolation: isolate">
    <g id="Media_Center" data-name="Media Center">
      <path id="Path_88802" data-name="Path 88802" d="M23.531,0H4.594a.47.47,0,0,0-.469.469V2.531H2.531A.47.47,0,0,0,2.063,3V5.531H.469A.47.47,0,0,0,0,6V21.469A2.533,2.533,0,0,0,2.531,24H21.469A2.533,2.533,0,0,0,24,21.469v-21A.47.47,0,0,0,23.531,0ZM4.125,21.469a1.594,1.594,0,0,1-3.187,0v-15H2.063V21A.469.469,0,0,0,3,21V3.469H4.125Zm18.938,0a1.592,1.592,0,0,1-1.594,1.594H4.5a2.5,2.5,0,0,0,.567-1.594V.938h18Z"/>
      <path id="XMLID_1376_" d="M6.844,7.406H21.281a.47.47,0,0,0,.469-.469V3.563a.47.47,0,0,0-.469-.469H6.844a.47.47,0,0,0-.469.469V6.938A.47.47,0,0,0,6.844,7.406Zm.469-3.375h13.5V6.469H7.313Z"/>
      <path id="XMLID_1459_" d="M6.844,18.656h7.219a.47.47,0,0,0,.469-.469v-9a.47.47,0,0,0-.469-.469H6.844a.47.47,0,0,0-.469.469v9A.47.47,0,0,0,6.844,18.656Zm.469-9h6.281v8.063H7.313Z"/>
      <path id="XMLID_1460_" d="M21.281,8.719H16.313a.469.469,0,0,0,0,.938h4.969a.469.469,0,0,0,0-.937Z"/>
      <path id="XMLID_1476_" d="M21.281,10.969H16.313a.469.469,0,0,0,0,.938h4.969a.469.469,0,0,0,0-.937Z"/>
      <path id="XMLID_1533_" d="M21.281,13.219H16.313a.469.469,0,0,0,0,.938h4.969a.469.469,0,0,0,0-.937Z"/>
      <path id="XMLID_1535_" d="M21.281,15.469H16.313a.469.469,0,0,0,0,.938h4.969a.469.469,0,0,0,0-.937Z"/>
      <path id="XMLID_1545_" d="M21.281,17.719H16.313a.469.469,0,0,0,0,.938h4.969a.469.469,0,0,0,0-.937Z"/>
      <path id="XMLID_1550_" d="M6.844,20.906H21.281a.469.469,0,0,0,0-.937H6.844a.469.469,0,0,0,0,.938Z"/>
    </g>
  </g>
</svg>
