<svg xmlns="http://www.w3.org/2000/svg" xmlns:xlink="http://www.w3.org/1999/xlink" width="23" height="23" viewBox="0 0 23 23">
  <defs>
    <clipPath id="clip-path">
      <rect id="Rectangle_63" data-name="Rectangle 63" width="23" height="23" transform="translate(112 316)" fill="#bcbcbc"/>
    </clipPath>
  </defs>
  <g id="Mask_Group_17" data-name="Mask Group 17" transform="translate(-112 -316)" clip-path="url(#clip-path)" style="isolation: isolate">
    <g id="document" transform="translate(114.82 316)">
      <g id="Group_10720" data-name="Group 10720" transform="translate(0)">
        <g id="Group_10719" data-name="Group 10719">
          <path id="Path_10000" data-name="Path 10000" d="M10.041,7.18a2.3,2.3,0,0,0-1.1-.256,2.438,2.438,0,0,0-.839.14,1.5,1.5,0,0,0-.629.419,2.155,2.155,0,0,0-.4.676,2.713,2.713,0,0,0-.14.886,2.574,2.574,0,0,0,.14.862,1.83,1.83,0,0,0,1.025,1.119,2.53,2.53,0,0,0,1.724.023,1.543,1.543,0,0,0,.629-.443,2.155,2.155,0,0,0,.4-.676A2.478,2.478,0,0,0,11,9.068a2.465,2.465,0,0,0-.233-1.119A1.783,1.783,0,0,0,10.041,7.18Zm-.07,2.68a1.111,1.111,0,0,1-.419.489,1.159,1.159,0,0,1-1.049.07,1.422,1.422,0,0,1-.373-.28,1.276,1.276,0,0,1-.256-.466,2.552,2.552,0,0,1-.093-.629,1.786,1.786,0,0,1,.093-.629,1.737,1.737,0,0,1,.233-.466,1.122,1.122,0,0,1,.373-.28,1.043,1.043,0,0,1,.466-.093,1.154,1.154,0,0,1,.629.163,1.078,1.078,0,0,1,.419.489,2.008,2.008,0,0,1,.14.792A2.239,2.239,0,0,1,9.971,9.86Z" transform="translate(-0.37 2.444)" fill="#bcbcbc"/>
          <path id="Path_10001" data-name="Path 10001" d="M19.4,4.591l-.023-.023V4.544L14.947.117,14.924.093A.023.023,0,0,1,14.9.07a.023.023,0,0,1-.023-.023A.383.383,0,0,0,14.644,0H3.669A1.585,1.585,0,0,0,2.55.466a1.627,1.627,0,0,0-.466,1.119V21.415a1.551,1.551,0,0,0,.443,1.1l.023.023A1.627,1.627,0,0,0,3.669,23H17.86a1.585,1.585,0,0,0,1.119-.466,1.627,1.627,0,0,0,.466-1.119V4.824A.689.689,0,0,0,19.4,4.591ZM15.087,1.678,17.72,4.311H15.786A.635.635,0,0,1,15.3,4.1a.727.727,0,0,1-.21-.489V1.678Zm3.356,19.738a.639.639,0,0,1-.606.606H3.669a.584.584,0,0,1-.419-.186l-.023-.023a.661.661,0,0,1-.163-.4V1.561a.584.584,0,0,1,.186-.419A.584.584,0,0,1,3.669.955h10.44V3.589A1.692,1.692,0,0,0,14.621,4.8a1.728,1.728,0,0,0,1.212.489h2.61V21.415Z" transform="translate(-2.084)" fill="#bcbcbc"/>
          <path id="Path_10002" data-name="Path 10002" d="M11.506,7.064a1.862,1.862,0,0,0-.629.419,1.838,1.838,0,0,0-.419.676,2.615,2.615,0,0,0-.14.886,4.539,4.539,0,0,0,.047.583,3.3,3.3,0,0,0,.163.513,1.773,1.773,0,0,0,.28.443,1.856,1.856,0,0,0,.4.35,1.529,1.529,0,0,0,.489.186,2.348,2.348,0,0,0,.583.07,1.851,1.851,0,0,0,.746-.14,1.779,1.779,0,0,0,.536-.35,1.669,1.669,0,0,0,.3-.443,1.058,1.058,0,0,0,.093-.419.374.374,0,0,0-.117-.256.35.35,0,0,0-.256-.093.29.29,0,0,0-.256.093,2.542,2.542,0,0,0-.14.256,1.09,1.09,0,0,1-.373.513,1.039,1.039,0,0,1-.606.186,1,1,0,0,1-.583-.163.931.931,0,0,1-.373-.466,1.931,1.931,0,0,1-.14-.792,1.7,1.7,0,0,1,.3-1.1.994.994,0,0,1,.816-.4.965.965,0,0,1,.536.14,1.1,1.1,0,0,1,.373.466.808.808,0,0,0,.186.256.348.348,0,0,0,.233.07.287.287,0,0,0,.233-.117.35.35,0,0,0,.093-.256,1.046,1.046,0,0,0-.21-.559,1.643,1.643,0,0,0-.606-.489,1.841,1.841,0,0,0-.886-.21A2.175,2.175,0,0,0,11.506,7.064Z" transform="translate(0.822 2.444)" fill="#bcbcbc"/>
          <path id="Path_10003" data-name="Path 10003" d="M6.828,7.349a1.627,1.627,0,0,0-.559-.3,3.3,3.3,0,0,0-.722-.07H4.474a.617.617,0,0,0-.4.117.573.573,0,0,0-.117.4v3.006a.691.691,0,0,0,.047.326.289.289,0,0,0,.14.186.655.655,0,0,0,.35.07H5.569a3.49,3.49,0,0,0,.513-.047,2.817,2.817,0,0,0,.419-.117,1.306,1.306,0,0,0,.35-.233,2.088,2.088,0,0,0,.35-.443,1.991,1.991,0,0,0,.21-.559A3.011,3.011,0,0,0,7.48,9,2.2,2.2,0,0,0,6.828,7.349ZM6.2,10.215a.945.945,0,0,1-.21.117,1.026,1.026,0,0,1-.233.047H4.8V7.628H5.36a1.837,1.837,0,0,1,.652.093.728.728,0,0,1,.443.4,1.891,1.891,0,0,1,.186.909A1.558,1.558,0,0,1,6.2,10.215Z" transform="translate(-1.421 2.462)" fill="#bcbcbc"/>
        </g>
      </g>
    </g>
  </g>
</svg>
