<svg xmlns="http://www.w3.org/2000/svg" xmlns:xlink="http://www.w3.org/1999/xlink" width="24" height="24" viewBox="0 0 24 24">
  <defs>
    <clipPath id="clip-path">
      <rect id="Rectangle_147657" data-name="Rectangle 147657" width="24" height="24" fill="#fff"/>
    </clipPath>
  </defs>
  <g id="Mask_Group_120" data-name="Mask Group 120" clip-path="url(#clip-path)">
    <g id="Community" transform="translate(0)">
      <g id="Group_10708" data-name="Group 10708" transform="translate(14.438)">
        <g id="Group_10707" data-name="Group 10707">
          <path id="Path_88779" data-name="Path 88779" d="M21.089,4.622a2.407,2.407,0,0,0,.548-1.528V2.419a2.419,2.419,0,0,0-4.838,0v.675a2.4,2.4,0,0,0,.548,1.528,3.487,3.487,0,0,0-2.906,3.436V9.084a.47.47,0,0,0,.469.469h8.625A.47.47,0,0,0,24,9.084V8.058A3.5,3.5,0,0,0,21.089,4.622Zm-3.352-2.2a1.481,1.481,0,0,1,2.963,0v.675a1.481,1.481,0,0,1-2.963,0ZM15.375,8.611V8.053A2.551,2.551,0,0,1,17.92,5.508h2.6a2.551,2.551,0,0,1,2.545,2.545v.558Z" transform="translate(-14.442)"/>
        </g>
      </g>
      <g id="Group_10710" data-name="Group 10710" transform="translate(10.294 3.056)">
        <g id="Group_10709" data-name="Group 10709">
          <path id="Path_88780" data-name="Path 88780" d="M13.2,3.056H10.767a.469.469,0,0,0,0,.938H13.2a.469.469,0,0,0,0-.937Z" transform="translate(-10.298 -3.056)"/>
        </g>
      </g>
      <g id="Group_10712" data-name="Group 10712" transform="translate(10.289 20.016)">
        <g id="Group_10711" data-name="Group 10711">
          <path id="Path_88781" data-name="Path 88781" d="M13.233,20.016h-2.47a.469.469,0,0,0,0,.938h2.47a.469.469,0,0,0,0-.937Z" transform="translate(-10.294 -20.016)"/>
        </g>
      </g>
      <g id="Group_10714" data-name="Group 10714" transform="translate(3.047 10.303)">
        <g id="Group_10713" data-name="Group 10713">
          <path id="Path_88782" data-name="Path 88782" d="M3.52,10.3a.47.47,0,0,0-.469.469v2.437a.469.469,0,0,0,.938,0V10.772A.467.467,0,0,0,3.52,10.3Z" transform="translate(-3.052 -10.303)"/>
        </g>
      </g>
      <g id="Group_10716" data-name="Group 10716" transform="translate(20.016 10.303)">
        <g id="Group_10715" data-name="Group 10715">
          <path id="Path_88783" data-name="Path 88783" d="M20.489,10.3a.47.47,0,0,0-.469.469v2.437a.469.469,0,1,0,.938,0V10.772A.467.467,0,0,0,20.489,10.3Z" transform="translate(-20.02 -10.303)"/>
        </g>
      </g>
      <g id="Group_10718" data-name="Group 10718">
        <g id="Group_10717" data-name="Group 10717">
          <path id="Path_88784" data-name="Path 88784" d="M6.656,4.622A2.407,2.407,0,0,0,7.2,3.094V2.419a2.421,2.421,0,0,0-4.842,0v.675a2.4,2.4,0,0,0,.548,1.528A3.487,3.487,0,0,0,0,8.058V9.084a.47.47,0,0,0,.469.469H9.1a.47.47,0,0,0,.469-.469V8.058A3.5,3.5,0,0,0,6.656,4.622ZM3.3,2.419a1.481,1.481,0,0,1,2.963,0v.675a1.481,1.481,0,0,1-2.963,0ZM8.625,8.611H.938V8.053A2.551,2.551,0,0,1,3.483,5.508h2.6A2.551,2.551,0,0,1,8.625,8.053v.558Z" transform="translate(-0.005)"/>
        </g>
      </g>
      <g id="Group_10720" data-name="Group 10720" transform="translate(14.438 14.456)">
        <g id="Group_10719" data-name="Group 10719">
          <path id="Path_88785" data-name="Path 88785" d="M21.089,19.073a2.407,2.407,0,0,0,.548-1.528v-.67a2.419,2.419,0,0,0-4.838,0v.67a2.4,2.4,0,0,0,.548,1.528,3.487,3.487,0,0,0-2.906,3.436v1.022a.47.47,0,0,0,.469.469h8.625A.47.47,0,0,0,24,23.531V22.5A3.491,3.491,0,0,0,21.089,19.073Zm-3.352-2.2a1.481,1.481,0,0,1,2.963,0v.67a1.481,1.481,0,0,1-2.963,0Zm-2.362,6.192V22.5a2.551,2.551,0,0,1,2.545-2.545h2.6A2.551,2.551,0,0,1,23.062,22.5v.558Z" transform="translate(-14.442 -14.456)"/>
        </g>
      </g>
      <g id="Group_10722" data-name="Group 10722" transform="translate(0.005 14.456)">
        <g id="Group_10721" data-name="Group 10721">
          <path id="Path_88786" data-name="Path 88786" d="M6.656,19.073A2.407,2.407,0,0,0,7.2,17.545v-.67a2.419,2.419,0,1,0-4.837,0v.67a2.4,2.4,0,0,0,.548,1.528A3.487,3.487,0,0,0,.009,22.509v1.022A.47.47,0,0,0,.478,24H9.1a.47.47,0,0,0,.469-.469V22.5A3.5,3.5,0,0,0,6.656,19.073ZM3.3,16.87a1.481,1.481,0,0,1,2.963,0v.67a1.481,1.481,0,0,1-2.962,0v-.67Zm5.325,6.192H.938V22.5a2.551,2.551,0,0,1,2.545-2.545h2.6A2.551,2.551,0,0,1,8.625,22.5v.558Z" transform="translate(-0.009 -14.456)"/>
        </g>
      </g>
    </g>
  </g>
</svg>
