<svg xmlns="http://www.w3.org/2000/svg" xmlns:xlink="http://www.w3.org/1999/xlink" width="91" height="91" viewBox="0 0 91 91">
  <defs>
    <clipPath id="clip-path">
      <rect id="Rectangle_147608" data-name="Rectangle 147608" width="91" height="91" transform="translate(477 3526)" fill="#b18c3c" stroke="#707070" stroke-width="1"/>
    </clipPath>
  </defs>
  <g id="Mask_Group_77" data-name="Mask Group 77" transform="translate(-477 -3526)" clip-path="url(#clip-path)" style="isolation: isolate">
    <g id="pie-chart" transform="translate(477 3526)">
      <path id="Path_83213" data-name="Path 83213" d="M73.938,91H17.063a9.492,9.492,0,0,1-9.479-9.479V9.479A9.492,9.492,0,0,1,17.063,0H73.938a9.492,9.492,0,0,1,9.479,9.479V81.521A9.492,9.492,0,0,1,73.938,91ZM17.063,3.792a5.694,5.694,0,0,0-5.687,5.688V81.521a5.694,5.694,0,0,0,5.688,5.688H73.938a5.694,5.694,0,0,0,5.688-5.687V9.479a5.694,5.694,0,0,0-5.687-5.688Z" fill="#b18c3c"/>
      <path id="Path_83214" data-name="Path 83214" d="M70.146,45.5H62.563a1.9,1.9,0,0,1,0-3.792h7.583a1.9,1.9,0,1,1,0,3.792Z" fill="#b18c3c"/>
      <path id="Path_83215" data-name="Path 83215" d="M70.146,34.125H62.563a1.9,1.9,0,0,1,0-3.792h7.583a1.9,1.9,0,1,1,0,3.792Z" fill="#b18c3c"/>
      <path id="Path_83216" data-name="Path 83216" d="M70.146,56.875H62.563a1.9,1.9,0,0,1,0-3.792h7.583a1.9,1.9,0,1,1,0,3.792Z" fill="#b18c3c"/>
      <path id="Path_83217" data-name="Path 83217" d="M70.146,68.25H62.563a1.9,1.9,0,1,1,0-3.792h7.583a1.9,1.9,0,1,1,0,3.792Z" fill="#b18c3c"/>
      <path id="Path_83218" data-name="Path 83218" d="M70.146,79.625H20.854a1.9,1.9,0,1,1,0-3.792H70.146a1.9,1.9,0,1,1,0,3.792Z" fill="#b18c3c"/>
      <path id="Path_83219" data-name="Path 83219" d="M37.917,68.25A18.958,18.958,0,1,1,56.875,49.292,18.98,18.98,0,0,1,37.917,68.25Zm0-34.125A15.167,15.167,0,1,0,53.083,49.292,15.182,15.182,0,0,0,37.917,34.125Z" fill="#b18c3c"/>
      <path id="Path_83220" data-name="Path 83220" d="M25.852,63.253a1.894,1.894,0,0,1-1.342-3.234L36.021,48.507V32.229a1.9,1.9,0,1,1,3.792,0V49.292a1.909,1.909,0,0,1-.554,1.342L27.194,62.7A1.9,1.9,0,0,1,25.852,63.253Z" fill="#b18c3c"/>
    </g>
  </g>
</svg>
