<svg height="512pt" viewBox="0 -43 512 512" width="512pt" xmlns="http://www.w3.org/2000/svg"><path d="m85.78125 209.515625c-.597656 2.496094-.597656 5.117187 0 7.613281 18.15625 73.964844 88.148438 125.613282 170.21875 125.613282s152.0625-51.648438 170.21875-125.613282c.597656-2.496094.597656-5.117187 0-7.613281-18.15625-73.964844-88.148438-125.613281-170.21875-125.613281s-152.0625 51.648437-170.21875 125.613281zm308.351562 3.816406c-16.085937 57.558594-72.277343 97.429688-138.132812 97.429688s-122.046875-39.871094-138.132812-97.429688c16.085937-57.554687 72.277343-97.429687 138.132812-97.429687s122.046875 39.875 138.132812 97.429687zm0 0"/><path d="m192 213.332031c0 35.285157 28.714844 64 64 64s64-28.714843 64-64c0-35.285156-28.714844-64-64-64s-64 28.714844-64 64zm96 0c0 17.644531-14.355469 32-32 32s-32-14.355469-32-32c0-17.640625 14.355469-32 32-32s32 14.359375 32 32zm0 0"/><path d="m16 106.667969c8.832031 0 16-7.167969 16-16v-32c0-4.4375 1.023438-26.667969 21.332031-26.667969h37.335938c8.832031 0 16-7.167969 16-16s-7.167969-16-16-16h-37.335938c-30.890625 0-53.332031 24.683594-53.332031 58.667969v32c0 8.832031 7.167969 16 16 16zm0 0"/><path d="m453.332031 0h-32c-8.832031 0-16 7.167969-16 16s7.167969 16 16 16h32c14.699219 0 26.667969 11.96875 26.667969 26.667969v32c0 8.832031 7.167969 16 16 16s16-7.167969 16-16v-32c0-32.363281-26.304688-58.667969-58.667969-58.667969zm0 0"/><path d="m53.332031 426.667969h37.335938c8.832031 0 16-7.167969 16-16s-7.167969-16-16-16h-37.335938c-20.308593 0-21.332031-22.230469-21.332031-26.667969v-32c0-8.832031-7.167969-16-16-16s-16 7.167969-16 16v32c0 33.984375 22.441406 58.667969 53.332031 58.667969zm0 0"/><path d="m496 320c-8.832031 0-16 7.167969-16 16v32c0 14.699219-11.96875 26.667969-26.667969 26.667969h-32c-8.832031 0-16 7.167969-16 16s7.167969 16 16 16h32c32.363281 0 58.667969-26.304688 58.667969-58.667969v-32c0-8.832031-7.167969-16-16-16zm0 0"/></svg>