<?xml version="1.0" encoding="utf-8"?>
<!-- Generator: Adobe Illustrator 25.2.0, SVG Export Plug-In . SVG Version: 6.00 Build 0)  -->
<svg version="1.1" id="Layer_1" xmlns="http://www.w3.org/2000/svg" xmlns:xlink="http://www.w3.org/1999/xlink" x="0px" y="0px"
	 viewBox="0 0 150 150" style="enable-background:new 0 0 150 150;" xml:space="preserve">
<style type="text/css">
	.st0{fill:#475993;}
	.st1{fill:#FFFFFF;}
</style>
<rect class="st0" width="150" height="150"/>
<path class="st1" d="M87.5,70.6v0.2L86.7,77c-0.1,0.6-0.6,1-1.3,1h-7.2l0,19.5h-9.1l0-19.5h-5.4c-0.7,0-1.3-0.5-1.3-1.2l0-6.3
	c0-0.7,0.6-1.2,1.3-1.2h5.4v-6.1c0-7,4.6-10.9,11.3-10.9H86c0.7,0,1.3,0.5,1.3,1.2c0,0,0,0,0,0V59c0,0.7-0.6,1.2-1.3,1.2h-3.4
	c-3.6,0-4.4,1.6-4.4,4v5.3h8C86.9,69.4,87.5,69.9,87.5,70.6z"/>
</svg>
