<?xml version="1.0" encoding="utf-8"?>
<!-- Generator: Adobe Illustrator 25.2.0, SVG Export Plug-In . SVG Version: 6.00 Build 0)  -->
<svg version="1.1" id="Layer_1" xmlns="http://www.w3.org/2000/svg" xmlns:xlink="http://www.w3.org/1999/xlink" x="0px" y="0px"
	 viewBox="0 0 150 150" style="enable-background:new 0 0 150 150;" xml:space="preserve">
<style type="text/css">
	.st0{fill:#50ABF1;}
	.st1{fill:#FFFFFF;}
</style>
<rect id="Rectangle_147646" class="st0" width="150" height="150"/>
<path id="Path_88769" class="st1" d="M47.5,92.5c15,9.6,34.9,5.1,44.4-10.1c3.3-5.2,5-11.2,5-17.3c0-0.4,0-0.9,0-1.3
	c2.2-1.6,4.1-3.6,5.6-5.8c-2.1,0.8-4.2,1.4-6.4,1.7h0h0c2.3-1.5,4-3.7,4.9-6.3c-1.8,0.9-3.6,1.7-5.5,2.3c-0.5,0.2-1.1,0.4-1.7,0.5
	c-4.3-4.6-11.4-4.8-16-0.5c-3,2.8-4.2,6.9-3.3,10.9c-9-0.7-17.3-4.9-23.2-11.8c0,0-5.4,7.4,3.2,15.1c-1.7-0.1-3.4-0.6-4.9-1.5
	c-0.3,5.5,3.5,10.4,8.9,11.3c-1.6,0.5-3.3,0.6-5,0.2c1.4,4.6,5.6,7.8,10.4,7.9C59.5,91.5,53.5,93.3,47.5,92.5L47.5,92.5z"/>
</svg>
