<?xml version="1.0" encoding="utf-8"?>
<!-- Generator: Adobe Illustrator 25.2.0, SVG Export Plug-In . SVG Version: 6.00 Build 0)  -->
<svg version="1.1" id="Layer_1" xmlns="http://www.w3.org/2000/svg" xmlns:xlink="http://www.w3.org/1999/xlink" x="0px" y="0px"
	 viewBox="0 0 150 150" style="enable-background:new 0 0 150 150;" xml:space="preserve">
<style type="text/css">
	.st0{fill:#1BD741;}
	.st1{fill:#FFFFFF;}
</style>
<rect id="Rectangle_147647" class="st0" width="150" height="150"/>
<g id="Group_161184" transform="translate(3.607 3.598)">
	<path id="Path_88770" class="st1" d="M46.4,96.4L49.9,84c-7-11.9-3-27.2,8.9-34.1s27.2-3,34.2,8.9c7,11.9,3,27.2-8.9,34.1
		c-7.6,4.5-17.1,4.6-24.8,0.3L46.4,96.4z M59.9,88.6l0.8,0.5c9.8,6,22.5,2.9,28.5-6.9s2.9-22.5-6.9-28.5s-22.5-2.9-28.5,6.9
		c-4.1,6.8-4,15.3,0.2,21.9l0.5,0.8l-2,7.1L59.9,88.6z"/>
	<path id="Path_88771" class="st1" d="M64.4,59.7l-1.6-0.1c-0.5,0-1,0.1-1.4,0.5c-1.2,1-2,2.3-2.4,3.7c-0.4,3.2,0.5,6.4,2.6,8.8
		C65,77.6,70,81.2,75.8,83c2,0.6,4.1,0.4,5.8-0.7c1.2-0.8,2-2,2.3-3.3l0.3-1.2c0.1-0.4-0.1-0.8-0.5-0.9l-5.5-2.5
		c-0.4-0.2-0.8-0.1-1,0.3L75,77.3c-0.2,0.2-0.4,0.3-0.7,0.2c-3.9-1.4-7.1-4.2-9.1-7.8c-0.1-0.2-0.1-0.5,0.1-0.7l2.1-2.4
		c0.2-0.2,0.3-0.6,0.1-0.9l-2.4-5.5C65,59.9,64.7,59.7,64.4,59.7z"/>
</g>
</svg>
