<?xml version="1.0" encoding="utf-8"?>
<!-- Generator: Adobe Illustrator 25.2.0, SVG Export Plug-In . SVG Version: 6.00 Build 0)  -->
<svg version="1.1" id="Layer_1" xmlns="http://www.w3.org/2000/svg" xmlns:xlink="http://www.w3.org/1999/xlink" x="0px" y="0px"
	 viewBox="0 0 150 150" style="enable-background:new 0 0 150 150;" xml:space="preserve">
<style type="text/css">
	.st0{fill:#FF0000;}
	.st1{fill:#FFFFFF;}
</style>
<rect id="Background" class="st0" width="150" height="150"/>
<g id="youtube" transform="translate(0 2.399)">
	<path id="Path_88772" class="st1" d="M101.4,59.6c-0.6-2.3-2.5-4.2-4.8-4.8c-7.1-0.9-14.3-1.2-21.5-1.2c-7.2-0.1-14.4,0.3-21.5,1.1
		c-2.4,0.7-4.2,2.5-4.8,4.8c-0.8,4.3-1.2,8.7-1.1,13c0,4.4,0.3,8.7,1.1,13.1c0.6,2.3,2.5,4.2,4.8,4.8c7.1,0.9,14.3,1.2,21.5,1.2
		c7.2,0.1,14.4-0.3,21.5-1.1c2.4-0.6,4.2-2.4,4.8-4.8c0.8-4.3,1.2-8.7,1.1-13C102.5,68.3,102.2,63.9,101.4,59.6L101.4,59.6z"/>
	<path id="Path_88773" class="st0" d="M69.5,80.7l14.3-8.1l-14.3-8.1V80.7z"/>
</g>
</svg>
