<?xml version="1.0" encoding="utf-8"?>
<!-- Generator: Adobe Illustrator 25.2.0, SVG Export Plug-In . SVG Version: 6.00 Build 0)  -->
<svg version="1.1" id="Layer_1" xmlns="http://www.w3.org/2000/svg" xmlns:xlink="http://www.w3.org/1999/xlink" x="0px" y="0px"
	 viewBox="0 0 512 512" style="enable-background:new 0 0 512 512;" xml:space="preserve">
<style type="text/css">
	.st0{fill:#195F30;}
	.st1{fill:#DBD8DD;}
	.st2{fill:#FFFFFF;}
	.st3{fill:#F4BB87;}
	.st4{fill:#FED19A;}
	.st5{fill:#EEEFEE;}
</style>
<g id="Circle_Grid">
	<circle class="st0" cx="256" cy="256" r="256"/>
</g>
<g id="icon">
	<path class="st1" d="M311.1,219.3l19,24l-9.5,55.6l-71-5.4l-54.2,5.4V227L311.1,219.3z"/>
	<path class="st2" d="M397,401.5V420H115v-18.5c0-66.9,54.2-121.2,121.2-121.2l0,0h39.7C342.8,280.3,397,334.6,397,401.5L397,401.5z
		"/>
	<path class="st3" d="M219.8,256.6v30.7c0,0-0.5,14.2,35,34.4c35.5-20.1,35-34.4,35-34.4v-30.7H219.8z"/>
	<path class="st4" d="M317.5,197.2c0,41.4-27.3,85.9-61,85.9s-61-44.4-61-85.9s27.3-64.2,61-64.2S317.5,155.7,317.5,197.2z"/>
	<path class="st5" d="M175.4,142.6c0-23.9,17.6-44.2,41.3-47.6l4.8-0.7c21.4-3.1,43.1-3.1,64.5,0l4.8,0.7
		c23.7,3.4,41.3,23.7,41.3,47.6H175.4z"/>
	<path class="st5" d="M376.9,333.1v1.4c-23.3,36.3-65.7,59.7-65.7,59.7v-217c0,0-0.9-10.9-54.7-10.9s-54.7,10.8-54.7,10.8v217
		c0,0-42.4-23.4-65.8-59.7v-1.4c12.5-23.5,27.2-45.7,43.8-66.5v-117l76.6-13.1l76.6,13.1v117C349.7,287.4,364.4,309.6,376.9,333.1
		L376.9,333.1z"/>
	<path d="M340.8,147.1c0,5-4,9-9,9.1c-0.6,0-1.2-0.1-1.8-0.2c-50.3-10.6-102.2-10.6-152.5,0.1c-4.9,1.1-9.7-2.1-10.8-6.9
		c-0.1-0.6-0.2-1.2-0.2-1.9v0c0-4.2,2.9-7.9,7-8.9c52.7-12.6,107.7-12.7,160.4-0.1C338,139.3,340.9,143,340.8,147.1L340.8,147.1z"/>
</g>
</svg>
