<?xml version="1.0" encoding="utf-8"?>
<!-- Generator: Adobe Illustrator 25.2.0, SVG Export Plug-In . SVG Version: 6.00 Build 0)  -->
<svg version="1.1" id="Capa_1" xmlns="http://www.w3.org/2000/svg" xmlns:xlink="http://www.w3.org/1999/xlink" x="0px" y="0px"
	 viewBox="0 0 512 512" style="enable-background:new 0 0 512 512;" xml:space="preserve">
<path d="M502,0H98c-5.5,0-10,4.5-10,10v44H54c-5.5,0-10,4.5-10,10v54H10c-5.5,0-10,4.5-10,10v330c0,29.8,24.2,54,54,54h404
	c29.8,0,54-24.2,54-54V10C512,4.5,507.5,0,502,0z M88,458c0,18.8-15.2,34-34,34s-34-15.2-34-34V138h24v310c0,5.5,4.5,10,10,10
	s10-4.5,10-10V74h24V458z M492,458c0,18.8-15.2,34-34,34H95.9c7.6-9.3,12.1-21.1,12.1-34V20h384V458z"/>
<path id="XMLID_1376_" d="M146,158h308c5.5,0,10-4.5,10-10V76c0-5.5-4.5-10-10-10H146c-5.5,0-10,4.5-10,10v72
	C136,153.5,140.5,158,146,158z M156,86h288v52H156V86z"/>
<path id="XMLID_1459_" d="M146,398h154c5.5,0,10-4.5,10-10V196c0-5.5-4.5-10-10-10H146c-5.5,0-10,4.5-10,10v192
	C136,393.5,140.5,398,146,398z M156,206h134v172H156V206z"/>
<path id="XMLID_1460_" d="M454,186H348c-5.5,0-10,4.5-10,10s4.5,10,10,10h106c5.5,0,10-4.5,10-10S459.5,186,454,186z"/>
<path id="XMLID_1476_" d="M454,234H348c-5.5,0-10,4.5-10,10s4.5,10,10,10h106c5.5,0,10-4.5,10-10S459.5,234,454,234z"/>
<path id="XMLID_1533_" d="M454,282H348c-5.5,0-10,4.5-10,10s4.5,10,10,10h106c5.5,0,10-4.5,10-10S459.5,282,454,282z"/>
<path id="XMLID_1535_" d="M454,330H348c-5.5,0-10,4.5-10,10s4.5,10,10,10h106c5.5,0,10-4.5,10-10S459.5,330,454,330z"/>
<path id="XMLID_1545_" d="M454,378H348c-5.5,0-10,4.5-10,10s4.5,10,10,10h106c5.5,0,10-4.5,10-10S459.5,378,454,378z"/>
<path id="XMLID_1550_" d="M146,446h308c5.5,0,10-4.5,10-10s-4.5-10-10-10H146c-5.5,0-10,4.5-10,10S140.5,446,146,446z"/>
</svg>
